<?xml version="1.0" encoding="utf-8" standalone="no"?>
<!DOCTYPE svg PUBLIC "-//W3C//DTD SVG 1.1//EN"
  "http://www.w3.org/Graphics/SVG/1.1/DTD/svg11.dtd">
<svg xmlns:xlink="http://www.w3.org/1999/xlink" width="864pt" height="432pt" viewBox="0 0 864 432" xmlns="http://www.w3.org/2000/svg" version="1.1">
 <metadata>
  <rdf:RDF xmlns:dc="http://purl.org/dc/elements/1.1/" xmlns:cc="http://creativecommons.org/ns#" xmlns:rdf="http://www.w3.org/1999/02/22-rdf-syntax-ns#">
   <cc:Work>
    <dc:type rdf:resource="http://purl.org/dc/dcmitype/StillImage"/>
    <dc:date>2023-05-16T14:38:17.137557</dc:date>
    <dc:format>image/svg+xml</dc:format>
    <dc:creator>
     <cc:Agent>
      <dc:title>Matplotlib v3.7.1, https://matplotlib.org/</dc:title>
     </cc:Agent>
    </dc:creator>
   </cc:Work>
  </rdf:RDF>
 </metadata>
 <defs>
  <style type="text/css">*{stroke-linejoin: round; stroke-linecap: butt}</style>
 </defs>
 <g id="figure_1">
  <g id="patch_1">
   <path d="M 0 432 
L 864 432 
L 864 0 
L 0 0 
z
"/>
  </g>
  <g id="axes_1">
   <g id="patch_2">
    <path d="M 108 384.48 
L 777.6 384.48 
L 777.6 51.84 
L 108 51.84 
z
"/>
   </g>
   <g id="PolyCollection_1">
    <defs>
     <path id="m67b7f20215" d="M 138.436364 -62.64 
L 138.436364 -157.14 
L 140.472241 -147.658395 
L 142.508118 -138.176789 
L 144.543995 -128.695184 
L 146.579872 -119.213579 
L 148.615749 -109.731973 
L 150.651627 -100.250368 
L 152.687504 -90.768763 
L 154.723381 -81.287157 
L 156.759258 -71.805552 
L 158.795135 -62.703211 
L 160.831012 -64.599532 
L 162.86689 -66.495853 
L 164.902767 -68.392174 
L 166.938644 -70.288495 
L 168.974521 -72.184816 
L 171.010398 -74.081137 
L 173.046275 -75.977458 
L 175.082153 -77.873779 
L 177.11803 -79.7701 
L 179.153907 -81.54 
L 181.189784 -81.54 
L 183.225661 -81.54 
L 185.261538 -81.54 
L 187.297416 -81.54 
L 189.333293 -81.54 
L 191.36917 -81.54 
L 193.405047 -81.54 
L 195.440924 -81.54 
L 197.476801 -81.54 
L 199.512679 -81.54 
L 201.548556 -81.54 
L 203.584433 -81.54 
L 205.62031 -81.54 
L 207.656187 -81.54 
L 209.692064 -81.54 
L 211.727942 -81.54 
L 213.763819 -81.54 
L 215.799696 -81.54 
L 217.835573 -81.54 
L 219.87145 -81.287157 
L 221.907327 -79.390836 
L 223.943205 -77.494515 
L 225.979082 -75.598194 
L 228.014959 -73.701873 
L 230.050836 -71.805552 
L 232.086713 -69.909231 
L 234.12259 -68.01291 
L 236.158468 -66.116589 
L 238.194345 -64.220268 
L 240.230222 -63.588161 
L 242.266099 -69.277124 
L 244.301976 -74.966087 
L 246.337853 -80.65505 
L 248.373731 -86.344013 
L 250.409608 -92.032977 
L 252.445485 -97.72194 
L 254.481362 -103.410903 
L 256.517239 -109.099866 
L 258.553116 -114.788829 
L 260.588994 -118.581472 
L 262.624871 -114.788829 
L 264.660748 -110.996187 
L 266.696625 -107.203545 
L 268.732502 -103.410903 
L 270.768379 -99.618261 
L 272.804257 -95.825619 
L 274.840134 -92.032977 
L 276.876011 -88.240334 
L 278.911888 -84.447692 
L 280.947765 -81.982475 
L 282.983642 -83.878796 
L 285.01952 -85.775117 
L 287.055397 -87.671438 
L 289.091274 -89.567759 
L 291.127151 -91.46408 
L 293.163028 -93.360401 
L 295.198905 -95.256722 
L 297.234783 -97.153043 
L 299.27066 -99.049365 
L 301.306537 -101.957057 
L 303.342414 -107.64602 
L 305.378291 -113.334983 
L 307.414168 -119.023946 
L 309.450046 -124.71291 
L 311.485923 -130.401873 
L 313.5218 -136.090836 
L 315.557677 -141.779799 
L 317.593554 -147.468763 
L 319.629431 -153.157726 
L 321.665309 -154.295518 
L 323.701186 -144.813913 
L 325.737063 -135.332308 
L 327.77294 -125.850702 
L 329.808817 -116.369097 
L 331.844694 -106.887492 
L 333.880572 -97.405886 
L 335.916449 -87.924281 
L 337.952326 -78.442676 
L 339.988203 -68.96107 
L 342.02408 -65.168428 
L 344.059957 -72.753712 
L 346.095835 -80.338997 
L 348.131712 -87.924281 
L 350.167589 -95.509565 
L 352.203466 -103.094849 
L 354.239343 -110.680134 
L 356.27522 -118.265418 
L 358.311098 -125.850702 
L 360.346975 -133.435987 
L 362.382852 -137.544682 
L 364.418729 -135.648361 
L 366.454606 -133.75204 
L 368.490483 -131.855719 
L 370.526361 -129.959398 
L 372.562238 -128.063077 
L 374.598115 -126.166756 
L 376.633992 -124.270435 
L 378.669869 -122.374114 
L 380.705746 -120.477793 
L 382.741624 -117.064415 
L 384.777501 -111.375452 
L 386.813378 -105.686488 
L 388.849255 -99.997525 
L 390.885132 -94.308562 
L 392.921009 -88.619599 
L 394.956887 -82.930635 
L 396.992764 -77.241672 
L 399.028641 -71.552709 
L 401.064518 -65.863746 
L 403.100395 -63.461739 
L 405.136272 -65.35806 
L 407.17215 -67.254381 
L 409.208027 -69.150702 
L 411.243904 -71.047023 
L 413.279781 -72.943344 
L 415.315658 -74.839666 
L 417.351535 -76.735987 
L 419.387413 -78.632308 
L 421.42329 -80.528629 
L 423.459167 -94.814247 
L 425.495044 -123.259064 
L 427.530921 -151.70388 
L 429.566798 -180.148696 
L 431.602676 -208.593512 
L 433.638553 -237.038328 
L 435.67443 -265.483144 
L 437.710307 -293.92796 
L 439.746184 -322.372776 
L 441.782061 -350.817592 
L 443.817939 -349.869431 
L 445.853816 -319.528294 
L 447.889693 -289.187157 
L 449.92557 -258.84602 
L 451.961447 -228.504883 
L 453.997324 -198.163746 
L 456.033202 -167.822609 
L 458.069079 -137.481472 
L 460.104956 -107.140334 
L 462.140833 -76.799197 
L 464.17671 -64.662742 
L 466.212587 -68.455385 
L 468.248465 -72.248027 
L 470.284342 -76.040669 
L 472.320219 -79.833311 
L 474.356096 -83.625953 
L 476.391973 -87.418595 
L 478.42785 -91.211237 
L 480.463728 -95.00388 
L 482.499605 -98.796522 
L 484.535482 -98.290836 
L 486.571359 -94.498194 
L 488.607236 -90.705552 
L 490.643113 -86.91291 
L 492.678991 -83.120268 
L 494.714868 -79.327625 
L 496.750745 -75.534983 
L 498.786622 -71.742341 
L 500.822499 -67.949699 
L 502.858376 -64.157057 
L 504.894254 -62.64 
L 506.930131 -62.64 
L 508.966008 -62.64 
L 511.001885 -62.64 
L 513.037762 -62.64 
L 515.073639 -62.64 
L 517.109517 -62.64 
L 519.145394 -62.64 
L 521.181271 -62.64 
L 523.217148 -62.64 
L 525.253025 -65.042007 
L 527.288902 -68.834649 
L 529.32478 -72.627291 
L 531.360657 -76.419933 
L 533.396534 -80.212575 
L 535.432411 -84.005217 
L 537.468288 -87.79786 
L 539.504165 -91.590502 
L 541.540043 -95.383144 
L 543.57592 -99.175786 
L 545.611797 -111.817926 
L 547.647674 -128.884816 
L 549.683551 -145.951706 
L 551.719428 -163.018595 
L 553.755306 -180.085485 
L 555.791183 -197.152375 
L 557.82706 -214.219264 
L 559.862937 -231.286154 
L 561.898814 -248.353043 
L 563.934691 -265.419933 
L 565.970569 -262.575452 
L 568.006446 -251.197525 
L 570.042323 -239.819599 
L 572.0782 -228.441672 
L 574.114077 -217.063746 
L 576.149954 -205.685819 
L 578.185832 -194.307893 
L 580.221709 -182.929967 
L 582.257586 -171.55204 
L 584.293463 -160.174114 
L 586.32934 -152.968094 
L 588.365217 -147.27913 
L 590.401095 -141.590167 
L 592.436972 -135.901204 
L 594.472849 -130.212241 
L 596.508726 -124.523278 
L 598.544603 -118.834314 
L 600.58048 -113.145351 
L 602.616358 -107.456388 
L 604.652235 -101.767425 
L 606.688112 -103.347692 
L 608.723989 -107.140334 
L 610.759866 -110.932977 
L 612.795743 -114.725619 
L 614.831621 -118.518261 
L 616.867498 -122.310903 
L 618.903375 -126.103545 
L 620.939252 -129.896187 
L 622.975129 -133.688829 
L 625.011006 -137.481472 
L 627.046884 -135.205886 
L 629.082761 -131.413244 
L 631.118638 -127.620602 
L 633.154515 -123.82796 
L 635.190392 -120.035318 
L 637.226269 -116.242676 
L 639.262147 -112.450033 
L 641.298024 -108.657391 
L 643.333901 -104.864749 
L 645.369778 -101.072107 
L 647.405655 -100.44 
L 649.441532 -100.44 
L 651.47741 -100.44 
L 653.513287 -100.44 
L 655.549164 -100.44 
L 657.585041 -100.44 
L 659.620918 -100.44 
L 661.656795 -100.44 
L 663.692673 -100.44 
L 665.72855 -100.44 
L 667.764427 -97.153043 
L 669.800304 -93.360401 
L 671.836181 -89.567759 
L 673.872058 -85.775117 
L 675.907936 -81.982475 
L 677.943813 -78.189833 
L 679.97969 -74.397191 
L 682.015567 -70.604548 
L 684.051444 -66.811906 
L 686.087321 -63.019264 
L 688.123199 -76.293512 
L 690.159076 -91.46408 
L 692.194953 -106.634649 
L 694.23083 -121.805217 
L 696.266707 -136.975786 
L 698.302584 -152.146355 
L 700.338462 -167.316923 
L 702.374339 -182.487492 
L 704.410216 -197.65806 
L 706.446093 -212.828629 
L 708.48197 -199.680803 
L 710.517847 -184.510234 
L 712.553725 -169.339666 
L 714.589602 -154.169097 
L 716.625479 -138.998528 
L 718.661356 -123.82796 
L 720.697233 -108.657391 
L 722.73311 -93.486823 
L 724.768988 -78.316254 
L 726.804865 -63.145686 
L 728.840742 -62.64 
L 730.876619 -62.64 
L 732.912496 -62.64 
L 734.948373 -62.64 
L 736.984251 -62.64 
L 739.020128 -62.64 
L 741.056005 -62.64 
L 743.091882 -62.64 
L 745.127759 -62.64 
L 747.163636 -62.64 
L 747.163636 -62.64 
L 747.163636 -62.64 
L 745.127759 -62.64 
L 743.091882 -62.64 
L 741.056005 -62.64 
L 739.020128 -62.64 
L 736.984251 -62.64 
L 734.948373 -62.64 
L 732.912496 -62.64 
L 730.876619 -62.64 
L 728.840742 -62.64 
L 726.804865 -62.64 
L 724.768988 -62.64 
L 722.73311 -62.64 
L 720.697233 -62.64 
L 718.661356 -62.64 
L 716.625479 -62.64 
L 714.589602 -62.64 
L 712.553725 -62.64 
L 710.517847 -62.64 
L 708.48197 -62.64 
L 706.446093 -62.64 
L 704.410216 -62.64 
L 702.374339 -62.64 
L 700.338462 -62.64 
L 698.302584 -62.64 
L 696.266707 -62.64 
L 694.23083 -62.64 
L 692.194953 -62.64 
L 690.159076 -62.64 
L 688.123199 -62.64 
L 686.087321 -62.64 
L 684.051444 -62.64 
L 682.015567 -62.64 
L 679.97969 -62.64 
L 677.943813 -62.64 
L 675.907936 -62.64 
L 673.872058 -62.64 
L 671.836181 -62.64 
L 669.800304 -62.64 
L 667.764427 -62.64 
L 665.72855 -62.64 
L 663.692673 -62.64 
L 661.656795 -62.64 
L 659.620918 -62.64 
L 657.585041 -62.64 
L 655.549164 -62.64 
L 653.513287 -62.64 
L 651.47741 -62.64 
L 649.441532 -62.64 
L 647.405655 -62.64 
L 645.369778 -62.64 
L 643.333901 -62.64 
L 641.298024 -62.64 
L 639.262147 -62.64 
L 637.226269 -62.64 
L 635.190392 -62.64 
L 633.154515 -62.64 
L 631.118638 -62.64 
L 629.082761 -62.64 
L 627.046884 -62.64 
L 625.011006 -62.64 
L 622.975129 -62.64 
L 620.939252 -62.64 
L 618.903375 -62.64 
L 616.867498 -62.64 
L 614.831621 -62.64 
L 612.795743 -62.64 
L 610.759866 -62.64 
L 608.723989 -62.64 
L 606.688112 -62.64 
L 604.652235 -62.64 
L 602.616358 -62.64 
L 600.58048 -62.64 
L 598.544603 -62.64 
L 596.508726 -62.64 
L 594.472849 -62.64 
L 592.436972 -62.64 
L 590.401095 -62.64 
L 588.365217 -62.64 
L 586.32934 -62.64 
L 584.293463 -62.64 
L 582.257586 -62.64 
L 580.221709 -62.64 
L 578.185832 -62.64 
L 576.149954 -62.64 
L 574.114077 -62.64 
L 572.0782 -62.64 
L 570.042323 -62.64 
L 568.006446 -62.64 
L 565.970569 -62.64 
L 563.934691 -62.64 
L 561.898814 -62.64 
L 559.862937 -62.64 
L 557.82706 -62.64 
L 555.791183 -62.64 
L 553.755306 -62.64 
L 551.719428 -62.64 
L 549.683551 -62.64 
L 547.647674 -62.64 
L 545.611797 -62.64 
L 543.57592 -62.64 
L 541.540043 -62.64 
L 539.504165 -62.64 
L 537.468288 -62.64 
L 535.432411 -62.64 
L 533.396534 -62.64 
L 531.360657 -62.64 
L 529.32478 -62.64 
L 527.288902 -62.64 
L 525.253025 -62.64 
L 523.217148 -62.64 
L 521.181271 -62.64 
L 519.145394 -62.64 
L 517.109517 -62.64 
L 515.073639 -62.64 
L 513.037762 -62.64 
L 511.001885 -62.64 
L 508.966008 -62.64 
L 506.930131 -62.64 
L 504.894254 -62.64 
L 502.858376 -62.64 
L 500.822499 -62.64 
L 498.786622 -62.64 
L 496.750745 -62.64 
L 494.714868 -62.64 
L 492.678991 -62.64 
L 490.643113 -62.64 
L 488.607236 -62.64 
L 486.571359 -62.64 
L 484.535482 -62.64 
L 482.499605 -62.64 
L 480.463728 -62.64 
L 478.42785 -62.64 
L 476.391973 -62.64 
L 474.356096 -62.64 
L 472.320219 -62.64 
L 470.284342 -62.64 
L 468.248465 -62.64 
L 466.212587 -62.64 
L 464.17671 -62.64 
L 462.140833 -62.64 
L 460.104956 -62.64 
L 458.069079 -62.64 
L 456.033202 -62.64 
L 453.997324 -62.64 
L 451.961447 -62.64 
L 449.92557 -62.64 
L 447.889693 -62.64 
L 445.853816 -62.64 
L 443.817939 -62.64 
L 441.782061 -62.64 
L 439.746184 -62.64 
L 437.710307 -62.64 
L 435.67443 -62.64 
L 433.638553 -62.64 
L 431.602676 -62.64 
L 429.566798 -62.64 
L 427.530921 -62.64 
L 425.495044 -62.64 
L 423.459167 -62.64 
L 421.42329 -62.64 
L 419.387413 -62.64 
L 417.351535 -62.64 
L 415.315658 -62.64 
L 413.279781 -62.64 
L 411.243904 -62.64 
L 409.208027 -62.64 
L 407.17215 -62.64 
L 405.136272 -62.64 
L 403.100395 -62.64 
L 401.064518 -62.64 
L 399.028641 -62.64 
L 396.992764 -62.64 
L 394.956887 -62.64 
L 392.921009 -62.64 
L 390.885132 -62.64 
L 388.849255 -62.64 
L 386.813378 -62.64 
L 384.777501 -62.64 
L 382.741624 -62.64 
L 380.705746 -62.64 
L 378.669869 -62.64 
L 376.633992 -62.64 
L 374.598115 -62.64 
L 372.562238 -62.64 
L 370.526361 -62.64 
L 368.490483 -62.64 
L 366.454606 -62.64 
L 364.418729 -62.64 
L 362.382852 -62.64 
L 360.346975 -62.64 
L 358.311098 -62.64 
L 356.27522 -62.64 
L 354.239343 -62.64 
L 352.203466 -62.64 
L 350.167589 -62.64 
L 348.131712 -62.64 
L 346.095835 -62.64 
L 344.059957 -62.64 
L 342.02408 -62.64 
L 339.988203 -62.64 
L 337.952326 -62.64 
L 335.916449 -62.64 
L 333.880572 -62.64 
L 331.844694 -62.64 
L 329.808817 -62.64 
L 327.77294 -62.64 
L 325.737063 -62.64 
L 323.701186 -62.64 
L 321.665309 -62.64 
L 319.629431 -62.64 
L 317.593554 -62.64 
L 315.557677 -62.64 
L 313.5218 -62.64 
L 311.485923 -62.64 
L 309.450046 -62.64 
L 307.414168 -62.64 
L 305.378291 -62.64 
L 303.342414 -62.64 
L 301.306537 -62.64 
L 299.27066 -62.64 
L 297.234783 -62.64 
L 295.198905 -62.64 
L 293.163028 -62.64 
L 291.127151 -62.64 
L 289.091274 -62.64 
L 287.055397 -62.64 
L 285.01952 -62.64 
L 282.983642 -62.64 
L 280.947765 -62.64 
L 278.911888 -62.64 
L 276.876011 -62.64 
L 274.840134 -62.64 
L 272.804257 -62.64 
L 270.768379 -62.64 
L 268.732502 -62.64 
L 266.696625 -62.64 
L 264.660748 -62.64 
L 262.624871 -62.64 
L 260.588994 -62.64 
L 258.553116 -62.64 
L 256.517239 -62.64 
L 254.481362 -62.64 
L 252.445485 -62.64 
L 250.409608 -62.64 
L 248.373731 -62.64 
L 246.337853 -62.64 
L 244.301976 -62.64 
L 242.266099 -62.64 
L 240.230222 -62.64 
L 238.194345 -62.64 
L 236.158468 -62.64 
L 234.12259 -62.64 
L 232.086713 -62.64 
L 230.050836 -62.64 
L 228.014959 -62.64 
L 225.979082 -62.64 
L 223.943205 -62.64 
L 221.907327 -62.64 
L 219.87145 -62.64 
L 217.835573 -62.64 
L 215.799696 -62.64 
L 213.763819 -62.64 
L 211.727942 -62.64 
L 209.692064 -62.64 
L 207.656187 -62.64 
L 205.62031 -62.64 
L 203.584433 -62.64 
L 201.548556 -62.64 
L 199.512679 -62.64 
L 197.476801 -62.64 
L 195.440924 -62.64 
L 193.405047 -62.64 
L 191.36917 -62.64 
L 189.333293 -62.64 
L 187.297416 -62.64 
L 185.261538 -62.64 
L 183.225661 -62.64 
L 181.189784 -62.64 
L 179.153907 -62.64 
L 177.11803 -62.64 
L 175.082153 -62.64 
L 173.046275 -62.64 
L 171.010398 -62.64 
L 168.974521 -62.64 
L 166.938644 -62.64 
L 164.902767 -62.64 
L 162.86689 -62.64 
L 160.831012 -62.64 
L 158.795135 -62.64 
L 156.759258 -62.64 
L 154.723381 -62.64 
L 152.687504 -62.64 
L 150.651627 -62.64 
L 148.615749 -62.64 
L 146.579872 -62.64 
L 144.543995 -62.64 
L 142.508118 -62.64 
L 140.472241 -62.64 
L 138.436364 -62.64 
z
" style="stroke: #1e90ff; stroke-opacity: 0.2"/>
    </defs>
    <g clip-path="url(#p9fc7bfb846)">
     <use xlink:href="#m67b7f20215" x="0" y="432" style="fill: #1e90ff; fill-opacity: 0.2; stroke: #1e90ff; stroke-opacity: 0.2"/>
    </g>
   </g>
   <g id="matplotlib.axis_1">
    <g id="xtick_1">
     <g id="line2d_1">
      <defs>
       <path id="m7610efd0c1" d="M 0 0 
L 0 3.5 
" style="stroke: #ffffff; stroke-width: 0.8"/>
      </defs>
      <g>
       <use xlink:href="#m7610efd0c1" x="138.436364" y="384.48" style="fill: #ffffff; stroke: #ffffff; stroke-width: 0.8"/>
      </g>
     </g>
     <g id="text_1">
      <!-- 16 -->
      <g style="fill: #ffffff" transform="translate(135.88857 405.85084) rotate(-45) scale(0.1 -0.1)">
       <defs>
        <path id="DejaVuSans-31" d="M 794 531 
L 1825 531 
L 1825 4091 
L 703 3866 
L 703 4441 
L 1819 4666 
L 2450 4666 
L 2450 531 
L 3481 531 
L 3481 0 
L 794 0 
L 794 531 
z
" transform="scale(0.015625)"/>
        <path id="DejaVuSans-36" d="M 2113 2584 
Q 1688 2584 1439 2293 
Q 1191 2003 1191 1497 
Q 1191 994 1439 701 
Q 1688 409 2113 409 
Q 2538 409 2786 701 
Q 3034 994 3034 1497 
Q 3034 2003 2786 2293 
Q 2538 2584 2113 2584 
z
M 3366 4563 
L 3366 3988 
Q 3128 4100 2886 4159 
Q 2644 4219 2406 4219 
Q 1781 4219 1451 3797 
Q 1122 3375 1075 2522 
Q 1259 2794 1537 2939 
Q 1816 3084 2150 3084 
Q 2853 3084 3261 2657 
Q 3669 2231 3669 1497 
Q 3669 778 3244 343 
Q 2819 -91 2113 -91 
Q 1303 -91 875 529 
Q 447 1150 447 2328 
Q 447 3434 972 4092 
Q 1497 4750 2381 4750 
Q 2619 4750 2861 4703 
Q 3103 4656 3366 4563 
z
" transform="scale(0.015625)"/>
       </defs>
       <use xlink:href="#DejaVuSans-31"/>
       <use xlink:href="#DejaVuSans-36" x="63.623047"/>
      </g>
     </g>
    </g>
    <g id="xtick_2">
     <g id="line2d_2">
      <g>
       <use xlink:href="#m7610efd0c1" x="199.309091" y="384.48" style="fill: #ffffff; stroke: #ffffff; stroke-width: 0.8"/>
      </g>
     </g>
     <g id="text_2">
      <!-- 19 -->
      <g style="fill: #ffffff" transform="translate(196.761297 405.85084) rotate(-45) scale(0.1 -0.1)">
       <defs>
        <path id="DejaVuSans-39" d="M 703 97 
L 703 672 
Q 941 559 1184 500 
Q 1428 441 1663 441 
Q 2288 441 2617 861 
Q 2947 1281 2994 2138 
Q 2813 1869 2534 1725 
Q 2256 1581 1919 1581 
Q 1219 1581 811 2004 
Q 403 2428 403 3163 
Q 403 3881 828 4315 
Q 1253 4750 1959 4750 
Q 2769 4750 3195 4129 
Q 3622 3509 3622 2328 
Q 3622 1225 3098 567 
Q 2575 -91 1691 -91 
Q 1453 -91 1209 -44 
Q 966 3 703 97 
z
M 1959 2075 
Q 2384 2075 2632 2365 
Q 2881 2656 2881 3163 
Q 2881 3666 2632 3958 
Q 2384 4250 1959 4250 
Q 1534 4250 1286 3958 
Q 1038 3666 1038 3163 
Q 1038 2656 1286 2365 
Q 1534 2075 1959 2075 
z
" transform="scale(0.015625)"/>
       </defs>
       <use xlink:href="#DejaVuSans-31"/>
       <use xlink:href="#DejaVuSans-39" x="63.623047"/>
      </g>
     </g>
    </g>
    <g id="xtick_3">
     <g id="line2d_3">
      <g>
       <use xlink:href="#m7610efd0c1" x="260.181818" y="384.48" style="fill: #ffffff; stroke: #ffffff; stroke-width: 0.8"/>
      </g>
     </g>
     <g id="text_3">
      <!-- 22 -->
      <g style="fill: #ffffff" transform="translate(257.634024 405.85084) rotate(-45) scale(0.1 -0.1)">
       <defs>
        <path id="DejaVuSans-32" d="M 1228 531 
L 3431 531 
L 3431 0 
L 469 0 
L 469 531 
Q 828 903 1448 1529 
Q 2069 2156 2228 2338 
Q 2531 2678 2651 2914 
Q 2772 3150 2772 3378 
Q 2772 3750 2511 3984 
Q 2250 4219 1831 4219 
Q 1534 4219 1204 4116 
Q 875 4013 500 3803 
L 500 4441 
Q 881 4594 1212 4672 
Q 1544 4750 1819 4750 
Q 2544 4750 2975 4387 
Q 3406 4025 3406 3419 
Q 3406 3131 3298 2873 
Q 3191 2616 2906 2266 
Q 2828 2175 2409 1742 
Q 1991 1309 1228 531 
z
" transform="scale(0.015625)"/>
       </defs>
       <use xlink:href="#DejaVuSans-32"/>
       <use xlink:href="#DejaVuSans-32" x="63.623047"/>
      </g>
     </g>
    </g>
    <g id="xtick_4">
     <g id="line2d_4">
      <g>
       <use xlink:href="#m7610efd0c1" x="321.054545" y="384.48" style="fill: #ffffff; stroke: #ffffff; stroke-width: 0.8"/>
      </g>
     </g>
     <g id="text_4">
      <!-- 25 -->
      <g style="fill: #ffffff" transform="translate(318.506751 405.85084) rotate(-45) scale(0.1 -0.1)">
       <defs>
        <path id="DejaVuSans-35" d="M 691 4666 
L 3169 4666 
L 3169 4134 
L 1269 4134 
L 1269 2991 
Q 1406 3038 1543 3061 
Q 1681 3084 1819 3084 
Q 2600 3084 3056 2656 
Q 3513 2228 3513 1497 
Q 3513 744 3044 326 
Q 2575 -91 1722 -91 
Q 1428 -91 1123 -41 
Q 819 9 494 109 
L 494 744 
Q 775 591 1075 516 
Q 1375 441 1709 441 
Q 2250 441 2565 725 
Q 2881 1009 2881 1497 
Q 2881 1984 2565 2268 
Q 2250 2553 1709 2553 
Q 1456 2553 1204 2497 
Q 953 2441 691 2322 
L 691 4666 
z
" transform="scale(0.015625)"/>
       </defs>
       <use xlink:href="#DejaVuSans-32"/>
       <use xlink:href="#DejaVuSans-35" x="63.623047"/>
      </g>
     </g>
    </g>
    <g id="xtick_5">
     <g id="line2d_5">
      <g>
       <use xlink:href="#m7610efd0c1" x="381.927273" y="384.48" style="fill: #ffffff; stroke: #ffffff; stroke-width: 0.8"/>
      </g>
     </g>
     <g id="text_5">
      <!-- 28 -->
      <g style="fill: #ffffff" transform="translate(379.379479 405.85084) rotate(-45) scale(0.1 -0.1)">
       <defs>
        <path id="DejaVuSans-38" d="M 2034 2216 
Q 1584 2216 1326 1975 
Q 1069 1734 1069 1313 
Q 1069 891 1326 650 
Q 1584 409 2034 409 
Q 2484 409 2743 651 
Q 3003 894 3003 1313 
Q 3003 1734 2745 1975 
Q 2488 2216 2034 2216 
z
M 1403 2484 
Q 997 2584 770 2862 
Q 544 3141 544 3541 
Q 544 4100 942 4425 
Q 1341 4750 2034 4750 
Q 2731 4750 3128 4425 
Q 3525 4100 3525 3541 
Q 3525 3141 3298 2862 
Q 3072 2584 2669 2484 
Q 3125 2378 3379 2068 
Q 3634 1759 3634 1313 
Q 3634 634 3220 271 
Q 2806 -91 2034 -91 
Q 1263 -91 848 271 
Q 434 634 434 1313 
Q 434 1759 690 2068 
Q 947 2378 1403 2484 
z
M 1172 3481 
Q 1172 3119 1398 2916 
Q 1625 2713 2034 2713 
Q 2441 2713 2670 2916 
Q 2900 3119 2900 3481 
Q 2900 3844 2670 4047 
Q 2441 4250 2034 4250 
Q 1625 4250 1398 4047 
Q 1172 3844 1172 3481 
z
" transform="scale(0.015625)"/>
       </defs>
       <use xlink:href="#DejaVuSans-32"/>
       <use xlink:href="#DejaVuSans-38" x="63.623047"/>
      </g>
     </g>
    </g>
    <g id="xtick_6">
     <g id="line2d_6">
      <g>
       <use xlink:href="#m7610efd0c1" x="442.8" y="384.48" style="fill: #ffffff; stroke: #ffffff; stroke-width: 0.8"/>
      </g>
     </g>
     <g id="text_6">
      <!-- 01 -->
      <g style="fill: #ffffff" transform="translate(440.252206 405.85084) rotate(-45) scale(0.1 -0.1)">
       <defs>
        <path id="DejaVuSans-30" d="M 2034 4250 
Q 1547 4250 1301 3770 
Q 1056 3291 1056 2328 
Q 1056 1369 1301 889 
Q 1547 409 2034 409 
Q 2525 409 2770 889 
Q 3016 1369 3016 2328 
Q 3016 3291 2770 3770 
Q 2525 4250 2034 4250 
z
M 2034 4750 
Q 2819 4750 3233 4129 
Q 3647 3509 3647 2328 
Q 3647 1150 3233 529 
Q 2819 -91 2034 -91 
Q 1250 -91 836 529 
Q 422 1150 422 2328 
Q 422 3509 836 4129 
Q 1250 4750 2034 4750 
z
" transform="scale(0.015625)"/>
       </defs>
       <use xlink:href="#DejaVuSans-30"/>
       <use xlink:href="#DejaVuSans-31" x="63.623047"/>
      </g>
     </g>
    </g>
    <g id="xtick_7">
     <g id="line2d_7">
      <g>
       <use xlink:href="#m7610efd0c1" x="503.672727" y="384.48" style="fill: #ffffff; stroke: #ffffff; stroke-width: 0.8"/>
      </g>
     </g>
     <g id="text_7">
      <!-- 04 -->
      <g style="fill: #ffffff" transform="translate(501.124933 405.85084) rotate(-45) scale(0.1 -0.1)">
       <defs>
        <path id="DejaVuSans-34" d="M 2419 4116 
L 825 1625 
L 2419 1625 
L 2419 4116 
z
M 2253 4666 
L 3047 4666 
L 3047 1625 
L 3713 1625 
L 3713 1100 
L 3047 1100 
L 3047 0 
L 2419 0 
L 2419 1100 
L 313 1100 
L 313 1709 
L 2253 4666 
z
" transform="scale(0.015625)"/>
       </defs>
       <use xlink:href="#DejaVuSans-30"/>
       <use xlink:href="#DejaVuSans-34" x="63.623047"/>
      </g>
     </g>
    </g>
    <g id="xtick_8">
     <g id="line2d_8">
      <g>
       <use xlink:href="#m7610efd0c1" x="564.545455" y="384.48" style="fill: #ffffff; stroke: #ffffff; stroke-width: 0.8"/>
      </g>
     </g>
     <g id="text_8">
      <!-- 07 -->
      <g style="fill: #ffffff" transform="translate(561.99766 405.85084) rotate(-45) scale(0.1 -0.1)">
       <defs>
        <path id="DejaVuSans-37" d="M 525 4666 
L 3525 4666 
L 3525 4397 
L 1831 0 
L 1172 0 
L 2766 4134 
L 525 4134 
L 525 4666 
z
" transform="scale(0.015625)"/>
       </defs>
       <use xlink:href="#DejaVuSans-30"/>
       <use xlink:href="#DejaVuSans-37" x="63.623047"/>
      </g>
     </g>
    </g>
    <g id="xtick_9">
     <g id="line2d_9">
      <g>
       <use xlink:href="#m7610efd0c1" x="625.418182" y="384.48" style="fill: #ffffff; stroke: #ffffff; stroke-width: 0.8"/>
      </g>
     </g>
     <g id="text_9">
      <!-- 10 -->
      <g style="fill: #ffffff" transform="translate(622.870388 405.85084) rotate(-45) scale(0.1 -0.1)">
       <use xlink:href="#DejaVuSans-31"/>
       <use xlink:href="#DejaVuSans-30" x="63.623047"/>
      </g>
     </g>
    </g>
    <g id="xtick_10">
     <g id="line2d_10">
      <g>
       <use xlink:href="#m7610efd0c1" x="686.290909" y="384.48" style="fill: #ffffff; stroke: #ffffff; stroke-width: 0.8"/>
      </g>
     </g>
     <g id="text_10">
      <!-- 13 -->
      <g style="fill: #ffffff" transform="translate(683.743115 405.85084) rotate(-45) scale(0.1 -0.1)">
       <defs>
        <path id="DejaVuSans-33" d="M 2597 2516 
Q 3050 2419 3304 2112 
Q 3559 1806 3559 1356 
Q 3559 666 3084 287 
Q 2609 -91 1734 -91 
Q 1441 -91 1130 -33 
Q 819 25 488 141 
L 488 750 
Q 750 597 1062 519 
Q 1375 441 1716 441 
Q 2309 441 2620 675 
Q 2931 909 2931 1356 
Q 2931 1769 2642 2001 
Q 2353 2234 1838 2234 
L 1294 2234 
L 1294 2753 
L 1863 2753 
Q 2328 2753 2575 2939 
Q 2822 3125 2822 3475 
Q 2822 3834 2567 4026 
Q 2313 4219 1838 4219 
Q 1578 4219 1281 4162 
Q 984 4106 628 3988 
L 628 4550 
Q 988 4650 1302 4700 
Q 1616 4750 1894 4750 
Q 2613 4750 3031 4423 
Q 3450 4097 3450 3541 
Q 3450 3153 3228 2886 
Q 3006 2619 2597 2516 
z
" transform="scale(0.015625)"/>
       </defs>
       <use xlink:href="#DejaVuSans-31"/>
       <use xlink:href="#DejaVuSans-33" x="63.623047"/>
      </g>
     </g>
    </g>
    <g id="xtick_11">
     <g id="line2d_11">
      <g>
       <use xlink:href="#m7610efd0c1" x="747.163636" y="384.48" style="fill: #ffffff; stroke: #ffffff; stroke-width: 0.8"/>
      </g>
     </g>
     <g id="text_11">
      <!-- 16 -->
      <g style="fill: #ffffff" transform="translate(744.615842 405.85084) rotate(-45) scale(0.1 -0.1)">
       <use xlink:href="#DejaVuSans-31"/>
       <use xlink:href="#DejaVuSans-36" x="63.623047"/>
      </g>
     </g>
    </g>
    <g id="text_12">
     <!-- Days -->
     <g style="fill: #ffffff" transform="translate(430.321875 418.919839) scale(0.1 -0.1)">
      <defs>
       <path id="DejaVuSans-44" d="M 1259 4147 
L 1259 519 
L 2022 519 
Q 2988 519 3436 956 
Q 3884 1394 3884 2338 
Q 3884 3275 3436 3711 
Q 2988 4147 2022 4147 
L 1259 4147 
z
M 628 4666 
L 1925 4666 
Q 3281 4666 3915 4102 
Q 4550 3538 4550 2338 
Q 4550 1131 3912 565 
Q 3275 0 1925 0 
L 628 0 
L 628 4666 
z
" transform="scale(0.015625)"/>
       <path id="DejaVuSans-61" d="M 2194 1759 
Q 1497 1759 1228 1600 
Q 959 1441 959 1056 
Q 959 750 1161 570 
Q 1363 391 1709 391 
Q 2188 391 2477 730 
Q 2766 1069 2766 1631 
L 2766 1759 
L 2194 1759 
z
M 3341 1997 
L 3341 0 
L 2766 0 
L 2766 531 
Q 2569 213 2275 61 
Q 1981 -91 1556 -91 
Q 1019 -91 701 211 
Q 384 513 384 1019 
Q 384 1609 779 1909 
Q 1175 2209 1959 2209 
L 2766 2209 
L 2766 2266 
Q 2766 2663 2505 2880 
Q 2244 3097 1772 3097 
Q 1472 3097 1187 3025 
Q 903 2953 641 2809 
L 641 3341 
Q 956 3463 1253 3523 
Q 1550 3584 1831 3584 
Q 2591 3584 2966 3190 
Q 3341 2797 3341 1997 
z
" transform="scale(0.015625)"/>
       <path id="DejaVuSans-79" d="M 2059 -325 
Q 1816 -950 1584 -1140 
Q 1353 -1331 966 -1331 
L 506 -1331 
L 506 -850 
L 844 -850 
Q 1081 -850 1212 -737 
Q 1344 -625 1503 -206 
L 1606 56 
L 191 3500 
L 800 3500 
L 1894 763 
L 2988 3500 
L 3597 3500 
L 2059 -325 
z
" transform="scale(0.015625)"/>
       <path id="DejaVuSans-73" d="M 2834 3397 
L 2834 2853 
Q 2591 2978 2328 3040 
Q 2066 3103 1784 3103 
Q 1356 3103 1142 2972 
Q 928 2841 928 2578 
Q 928 2378 1081 2264 
Q 1234 2150 1697 2047 
L 1894 2003 
Q 2506 1872 2764 1633 
Q 3022 1394 3022 966 
Q 3022 478 2636 193 
Q 2250 -91 1575 -91 
Q 1294 -91 989 -36 
Q 684 19 347 128 
L 347 722 
Q 666 556 975 473 
Q 1284 391 1588 391 
Q 1994 391 2212 530 
Q 2431 669 2431 922 
Q 2431 1156 2273 1281 
Q 2116 1406 1581 1522 
L 1381 1569 
Q 847 1681 609 1914 
Q 372 2147 372 2553 
Q 372 3047 722 3315 
Q 1072 3584 1716 3584 
Q 2034 3584 2315 3537 
Q 2597 3491 2834 3397 
z
" transform="scale(0.015625)"/>
      </defs>
      <use xlink:href="#DejaVuSans-44"/>
      <use xlink:href="#DejaVuSans-61" x="77.001953"/>
      <use xlink:href="#DejaVuSans-79" x="138.28125"/>
      <use xlink:href="#DejaVuSans-73" x="197.460938"/>
     </g>
    </g>
   </g>
   <g id="matplotlib.axis_2">
    <g id="ytick_1">
     <g id="line2d_12">
      <defs>
       <path id="m99ab3804a9" d="M 0 0 
L -3.5 0 
" style="stroke: #ffffff; stroke-width: 0.8"/>
      </defs>
      <g>
       <use xlink:href="#m99ab3804a9" x="108" y="369.36" style="fill: #ffffff; stroke: #ffffff; stroke-width: 0.8"/>
      </g>
     </g>
     <g id="text_13">
      <!-- 0 -->
      <g style="fill: #ffffff" transform="translate(94.6375 373.159219) scale(0.1 -0.1)">
       <use xlink:href="#DejaVuSans-30"/>
      </g>
     </g>
    </g>
    <g id="ytick_2">
     <g id="line2d_13">
      <g>
       <use xlink:href="#m99ab3804a9" x="108" y="350.46" style="fill: #ffffff; stroke: #ffffff; stroke-width: 0.8"/>
      </g>
     </g>
     <g id="text_14">
      <!-- 1 -->
      <g style="fill: #ffffff" transform="translate(94.6375 354.259219) scale(0.1 -0.1)">
       <use xlink:href="#DejaVuSans-31"/>
      </g>
     </g>
    </g>
    <g id="ytick_3">
     <g id="line2d_14">
      <g>
       <use xlink:href="#m99ab3804a9" x="108" y="331.56" style="fill: #ffffff; stroke: #ffffff; stroke-width: 0.8"/>
      </g>
     </g>
     <g id="text_15">
      <!-- 2 -->
      <g style="fill: #ffffff" transform="translate(94.6375 335.359219) scale(0.1 -0.1)">
       <use xlink:href="#DejaVuSans-32"/>
      </g>
     </g>
    </g>
    <g id="ytick_4">
     <g id="line2d_15">
      <g>
       <use xlink:href="#m99ab3804a9" x="108" y="312.66" style="fill: #ffffff; stroke: #ffffff; stroke-width: 0.8"/>
      </g>
     </g>
     <g id="text_16">
      <!-- 3 -->
      <g style="fill: #ffffff" transform="translate(94.6375 316.459219) scale(0.1 -0.1)">
       <use xlink:href="#DejaVuSans-33"/>
      </g>
     </g>
    </g>
    <g id="ytick_5">
     <g id="line2d_16">
      <g>
       <use xlink:href="#m99ab3804a9" x="108" y="293.76" style="fill: #ffffff; stroke: #ffffff; stroke-width: 0.8"/>
      </g>
     </g>
     <g id="text_17">
      <!-- 4 -->
      <g style="fill: #ffffff" transform="translate(94.6375 297.559219) scale(0.1 -0.1)">
       <use xlink:href="#DejaVuSans-34"/>
      </g>
     </g>
    </g>
    <g id="ytick_6">
     <g id="line2d_17">
      <g>
       <use xlink:href="#m99ab3804a9" x="108" y="274.86" style="fill: #ffffff; stroke: #ffffff; stroke-width: 0.8"/>
      </g>
     </g>
     <g id="text_18">
      <!-- 5 -->
      <g style="fill: #ffffff" transform="translate(94.6375 278.659219) scale(0.1 -0.1)">
       <use xlink:href="#DejaVuSans-35"/>
      </g>
     </g>
    </g>
    <g id="ytick_7">
     <g id="line2d_18">
      <g>
       <use xlink:href="#m99ab3804a9" x="108" y="255.96" style="fill: #ffffff; stroke: #ffffff; stroke-width: 0.8"/>
      </g>
     </g>
     <g id="text_19">
      <!-- 6 -->
      <g style="fill: #ffffff" transform="translate(94.6375 259.759219) scale(0.1 -0.1)">
       <use xlink:href="#DejaVuSans-36"/>
      </g>
     </g>
    </g>
    <g id="ytick_8">
     <g id="line2d_19">
      <g>
       <use xlink:href="#m99ab3804a9" x="108" y="237.06" style="fill: #ffffff; stroke: #ffffff; stroke-width: 0.8"/>
      </g>
     </g>
     <g id="text_20">
      <!-- 7 -->
      <g style="fill: #ffffff" transform="translate(94.6375 240.859219) scale(0.1 -0.1)">
       <use xlink:href="#DejaVuSans-37"/>
      </g>
     </g>
    </g>
    <g id="ytick_9">
     <g id="line2d_20">
      <g>
       <use xlink:href="#m99ab3804a9" x="108" y="218.16" style="fill: #ffffff; stroke: #ffffff; stroke-width: 0.8"/>
      </g>
     </g>
     <g id="text_21">
      <!-- 8 -->
      <g style="fill: #ffffff" transform="translate(94.6375 221.959219) scale(0.1 -0.1)">
       <use xlink:href="#DejaVuSans-38"/>
      </g>
     </g>
    </g>
    <g id="ytick_10">
     <g id="line2d_21">
      <g>
       <use xlink:href="#m99ab3804a9" x="108" y="199.26" style="fill: #ffffff; stroke: #ffffff; stroke-width: 0.8"/>
      </g>
     </g>
     <g id="text_22">
      <!-- 9 -->
      <g style="fill: #ffffff" transform="translate(94.6375 203.059219) scale(0.1 -0.1)">
       <use xlink:href="#DejaVuSans-39"/>
      </g>
     </g>
    </g>
    <g id="ytick_11">
     <g id="line2d_22">
      <g>
       <use xlink:href="#m99ab3804a9" x="108" y="180.36" style="fill: #ffffff; stroke: #ffffff; stroke-width: 0.8"/>
      </g>
     </g>
     <g id="text_23">
      <!-- 10 -->
      <g style="fill: #ffffff" transform="translate(88.275 184.159219) scale(0.1 -0.1)">
       <use xlink:href="#DejaVuSans-31"/>
       <use xlink:href="#DejaVuSans-30" x="63.623047"/>
      </g>
     </g>
    </g>
    <g id="ytick_12">
     <g id="line2d_23">
      <g>
       <use xlink:href="#m99ab3804a9" x="108" y="161.46" style="fill: #ffffff; stroke: #ffffff; stroke-width: 0.8"/>
      </g>
     </g>
     <g id="text_24">
      <!-- 11 -->
      <g style="fill: #ffffff" transform="translate(88.275 165.259219) scale(0.1 -0.1)">
       <use xlink:href="#DejaVuSans-31"/>
       <use xlink:href="#DejaVuSans-31" x="63.623047"/>
      </g>
     </g>
    </g>
    <g id="ytick_13">
     <g id="line2d_24">
      <g>
       <use xlink:href="#m99ab3804a9" x="108" y="142.56" style="fill: #ffffff; stroke: #ffffff; stroke-width: 0.8"/>
      </g>
     </g>
     <g id="text_25">
      <!-- 12 -->
      <g style="fill: #ffffff" transform="translate(88.275 146.359219) scale(0.1 -0.1)">
       <use xlink:href="#DejaVuSans-31"/>
       <use xlink:href="#DejaVuSans-32" x="63.623047"/>
      </g>
     </g>
    </g>
    <g id="ytick_14">
     <g id="line2d_25">
      <g>
       <use xlink:href="#m99ab3804a9" x="108" y="123.66" style="fill: #ffffff; stroke: #ffffff; stroke-width: 0.8"/>
      </g>
     </g>
     <g id="text_26">
      <!-- 13 -->
      <g style="fill: #ffffff" transform="translate(88.275 127.459219) scale(0.1 -0.1)">
       <use xlink:href="#DejaVuSans-31"/>
       <use xlink:href="#DejaVuSans-33" x="63.623047"/>
      </g>
     </g>
    </g>
    <g id="ytick_15">
     <g id="line2d_26">
      <g>
       <use xlink:href="#m99ab3804a9" x="108" y="104.76" style="fill: #ffffff; stroke: #ffffff; stroke-width: 0.8"/>
      </g>
     </g>
     <g id="text_27">
      <!-- 14 -->
      <g style="fill: #ffffff" transform="translate(88.275 108.559219) scale(0.1 -0.1)">
       <use xlink:href="#DejaVuSans-31"/>
       <use xlink:href="#DejaVuSans-34" x="63.623047"/>
      </g>
     </g>
    </g>
    <g id="ytick_16">
     <g id="line2d_27">
      <g>
       <use xlink:href="#m99ab3804a9" x="108" y="85.86" style="fill: #ffffff; stroke: #ffffff; stroke-width: 0.8"/>
      </g>
     </g>
     <g id="text_28">
      <!-- 15 -->
      <g style="fill: #ffffff" transform="translate(88.275 89.659219) scale(0.1 -0.1)">
       <use xlink:href="#DejaVuSans-31"/>
       <use xlink:href="#DejaVuSans-35" x="63.623047"/>
      </g>
     </g>
    </g>
    <g id="ytick_17">
     <g id="line2d_28">
      <g>
       <use xlink:href="#m99ab3804a9" x="108" y="66.96" style="fill: #ffffff; stroke: #ffffff; stroke-width: 0.8"/>
      </g>
     </g>
     <g id="text_29">
      <!-- 16 -->
      <g style="fill: #ffffff" transform="translate(88.275 70.759219) scale(0.1 -0.1)">
       <use xlink:href="#DejaVuSans-31"/>
       <use xlink:href="#DejaVuSans-36" x="63.623047"/>
      </g>
     </g>
    </g>
    <g id="text_30">
     <!-- Commit Count -->
     <g style="fill: #ffffff" transform="translate(82.195312 254.238125) rotate(-90) scale(0.1 -0.1)">
      <defs>
       <path id="DejaVuSans-43" d="M 4122 4306 
L 4122 3641 
Q 3803 3938 3442 4084 
Q 3081 4231 2675 4231 
Q 1875 4231 1450 3742 
Q 1025 3253 1025 2328 
Q 1025 1406 1450 917 
Q 1875 428 2675 428 
Q 3081 428 3442 575 
Q 3803 722 4122 1019 
L 4122 359 
Q 3791 134 3420 21 
Q 3050 -91 2638 -91 
Q 1578 -91 968 557 
Q 359 1206 359 2328 
Q 359 3453 968 4101 
Q 1578 4750 2638 4750 
Q 3056 4750 3426 4639 
Q 3797 4528 4122 4306 
z
" transform="scale(0.015625)"/>
       <path id="DejaVuSans-6f" d="M 1959 3097 
Q 1497 3097 1228 2736 
Q 959 2375 959 1747 
Q 959 1119 1226 758 
Q 1494 397 1959 397 
Q 2419 397 2687 759 
Q 2956 1122 2956 1747 
Q 2956 2369 2687 2733 
Q 2419 3097 1959 3097 
z
M 1959 3584 
Q 2709 3584 3137 3096 
Q 3566 2609 3566 1747 
Q 3566 888 3137 398 
Q 2709 -91 1959 -91 
Q 1206 -91 779 398 
Q 353 888 353 1747 
Q 353 2609 779 3096 
Q 1206 3584 1959 3584 
z
" transform="scale(0.015625)"/>
       <path id="DejaVuSans-6d" d="M 3328 2828 
Q 3544 3216 3844 3400 
Q 4144 3584 4550 3584 
Q 5097 3584 5394 3201 
Q 5691 2819 5691 2113 
L 5691 0 
L 5113 0 
L 5113 2094 
Q 5113 2597 4934 2840 
Q 4756 3084 4391 3084 
Q 3944 3084 3684 2787 
Q 3425 2491 3425 1978 
L 3425 0 
L 2847 0 
L 2847 2094 
Q 2847 2600 2669 2842 
Q 2491 3084 2119 3084 
Q 1678 3084 1418 2786 
Q 1159 2488 1159 1978 
L 1159 0 
L 581 0 
L 581 3500 
L 1159 3500 
L 1159 2956 
Q 1356 3278 1631 3431 
Q 1906 3584 2284 3584 
Q 2666 3584 2933 3390 
Q 3200 3197 3328 2828 
z
" transform="scale(0.015625)"/>
       <path id="DejaVuSans-69" d="M 603 3500 
L 1178 3500 
L 1178 0 
L 603 0 
L 603 3500 
z
M 603 4863 
L 1178 4863 
L 1178 4134 
L 603 4134 
L 603 4863 
z
" transform="scale(0.015625)"/>
       <path id="DejaVuSans-74" d="M 1172 4494 
L 1172 3500 
L 2356 3500 
L 2356 3053 
L 1172 3053 
L 1172 1153 
Q 1172 725 1289 603 
Q 1406 481 1766 481 
L 2356 481 
L 2356 0 
L 1766 0 
Q 1100 0 847 248 
Q 594 497 594 1153 
L 594 3053 
L 172 3053 
L 172 3500 
L 594 3500 
L 594 4494 
L 1172 4494 
z
" transform="scale(0.015625)"/>
       <path id="DejaVuSans-20" transform="scale(0.015625)"/>
       <path id="DejaVuSans-75" d="M 544 1381 
L 544 3500 
L 1119 3500 
L 1119 1403 
Q 1119 906 1312 657 
Q 1506 409 1894 409 
Q 2359 409 2629 706 
Q 2900 1003 2900 1516 
L 2900 3500 
L 3475 3500 
L 3475 0 
L 2900 0 
L 2900 538 
Q 2691 219 2414 64 
Q 2138 -91 1772 -91 
Q 1169 -91 856 284 
Q 544 659 544 1381 
z
M 1991 3584 
L 1991 3584 
z
" transform="scale(0.015625)"/>
       <path id="DejaVuSans-6e" d="M 3513 2113 
L 3513 0 
L 2938 0 
L 2938 2094 
Q 2938 2591 2744 2837 
Q 2550 3084 2163 3084 
Q 1697 3084 1428 2787 
Q 1159 2491 1159 1978 
L 1159 0 
L 581 0 
L 581 3500 
L 1159 3500 
L 1159 2956 
Q 1366 3272 1645 3428 
Q 1925 3584 2291 3584 
Q 2894 3584 3203 3211 
Q 3513 2838 3513 2113 
z
" transform="scale(0.015625)"/>
      </defs>
      <use xlink:href="#DejaVuSans-43"/>
      <use xlink:href="#DejaVuSans-6f" x="69.824219"/>
      <use xlink:href="#DejaVuSans-6d" x="131.005859"/>
      <use xlink:href="#DejaVuSans-6d" x="228.417969"/>
      <use xlink:href="#DejaVuSans-69" x="325.830078"/>
      <use xlink:href="#DejaVuSans-74" x="353.613281"/>
      <use xlink:href="#DejaVuSans-20" x="392.822266"/>
      <use xlink:href="#DejaVuSans-43" x="424.609375"/>
      <use xlink:href="#DejaVuSans-6f" x="494.433594"/>
      <use xlink:href="#DejaVuSans-75" x="555.615234"/>
      <use xlink:href="#DejaVuSans-6e" x="618.994141"/>
      <use xlink:href="#DejaVuSans-74" x="682.373047"/>
     </g>
    </g>
   </g>
   <g id="line2d_29">
    <path d="M 138.436364 274.86 
L 158.795135 369.296789 
L 179.153907 350.46 
L 217.835573 350.46 
L 219.87145 350.712843 
L 238.194345 367.779732 
L 240.230222 368.411839 
L 258.553116 317.211171 
L 260.588994 313.418528 
L 278.911888 347.552308 
L 280.947765 350.017525 
L 299.27066 332.950635 
L 301.306537 330.042943 
L 319.629431 278.842274 
L 321.665309 277.704482 
L 339.988203 363.03893 
L 342.02408 366.831572 
L 360.346975 298.564013 
L 362.382852 294.455318 
L 380.705746 311.522207 
L 382.741624 314.935585 
L 401.064518 366.136254 
L 403.100395 368.538261 
L 421.42329 351.471371 
L 423.459167 337.185753 
L 441.782061 81.182408 
L 443.817939 82.130569 
L 462.140833 355.200803 
L 464.17671 367.337258 
L 482.499605 333.203478 
L 484.535482 333.709164 
L 502.858376 367.842943 
L 504.894254 369.36 
L 523.217148 369.36 
L 525.253025 366.957993 
L 543.57592 332.824214 
L 545.611797 320.182074 
L 563.934691 166.580067 
L 565.970569 169.424548 
L 584.293463 271.825886 
L 586.32934 279.031906 
L 604.652235 330.232575 
L 606.688112 328.652308 
L 625.011006 294.518528 
L 627.046884 296.794114 
L 645.369778 330.927893 
L 647.405655 331.56 
L 665.72855 331.56 
L 667.764427 334.846957 
L 686.087321 368.980736 
L 688.123199 355.706488 
L 706.446093 219.171371 
L 708.48197 232.319197 
L 726.804865 368.854314 
L 728.840742 369.36 
L 747.163636 369.36 
L 747.163636 369.36 
" clip-path="url(#p9fc7bfb846)" style="fill: none; stroke: #1e90ff; stroke-width: 1.5; stroke-linecap: square"/>
   </g>
   <g id="line2d_30">
    <defs>
     <path id="m735ed562c9" d="M 0 3 
C 0.795609 3 1.55874 2.683901 2.12132 2.12132 
C 2.683901 1.55874 3 0.795609 3 0 
C 3 -0.795609 2.683901 -1.55874 2.12132 -2.12132 
C 1.55874 -2.683901 0.795609 -3 0 -3 
C -0.795609 -3 -1.55874 -2.683901 -2.12132 -2.12132 
C -2.683901 -1.55874 -3 -0.795609 -3 0 
C -3 0.795609 -2.683901 1.55874 -2.12132 2.12132 
C -1.55874 2.683901 -0.795609 3 0 3 
z
" style="stroke: #1e90ff"/>
    </defs>
    <g clip-path="url(#p9fc7bfb846)">
     <use xlink:href="#m735ed562c9" x="138.436364" y="274.86" style="fill: #1e90ff; stroke: #1e90ff"/>
     <use xlink:href="#m735ed562c9" x="158.727273" y="369.36" style="fill: #1e90ff; stroke: #1e90ff"/>
     <use xlink:href="#m735ed562c9" x="179.018182" y="350.46" style="fill: #1e90ff; stroke: #1e90ff"/>
     <use xlink:href="#m735ed562c9" x="199.309091" y="350.46" style="fill: #1e90ff; stroke: #1e90ff"/>
     <use xlink:href="#m735ed562c9" x="219.6" y="350.46" style="fill: #1e90ff; stroke: #1e90ff"/>
     <use xlink:href="#m735ed562c9" x="239.890909" y="369.36" style="fill: #1e90ff; stroke: #1e90ff"/>
     <use xlink:href="#m735ed562c9" x="260.181818" y="312.66" style="fill: #1e90ff; stroke: #1e90ff"/>
     <use xlink:href="#m735ed562c9" x="280.472727" y="350.46" style="fill: #1e90ff; stroke: #1e90ff"/>
     <use xlink:href="#m735ed562c9" x="300.763636" y="331.56" style="fill: #1e90ff; stroke: #1e90ff"/>
     <use xlink:href="#m735ed562c9" x="321.054545" y="274.86" style="fill: #1e90ff; stroke: #1e90ff"/>
     <use xlink:href="#m735ed562c9" x="341.345455" y="369.36" style="fill: #1e90ff; stroke: #1e90ff"/>
     <use xlink:href="#m735ed562c9" x="361.636364" y="293.76" style="fill: #1e90ff; stroke: #1e90ff"/>
     <use xlink:href="#m735ed562c9" x="381.927273" y="312.66" style="fill: #1e90ff; stroke: #1e90ff"/>
     <use xlink:href="#m735ed562c9" x="402.218182" y="369.36" style="fill: #1e90ff; stroke: #1e90ff"/>
     <use xlink:href="#m735ed562c9" x="422.509091" y="350.46" style="fill: #1e90ff; stroke: #1e90ff"/>
     <use xlink:href="#m735ed562c9" x="442.8" y="66.96" style="fill: #1e90ff; stroke: #1e90ff"/>
     <use xlink:href="#m735ed562c9" x="463.090909" y="369.36" style="fill: #1e90ff; stroke: #1e90ff"/>
     <use xlink:href="#m735ed562c9" x="483.381818" y="331.56" style="fill: #1e90ff; stroke: #1e90ff"/>
     <use xlink:href="#m735ed562c9" x="503.672727" y="369.36" style="fill: #1e90ff; stroke: #1e90ff"/>
     <use xlink:href="#m735ed562c9" x="523.963636" y="369.36" style="fill: #1e90ff; stroke: #1e90ff"/>
     <use xlink:href="#m735ed562c9" x="544.254545" y="331.56" style="fill: #1e90ff; stroke: #1e90ff"/>
     <use xlink:href="#m735ed562c9" x="564.545455" y="161.46" style="fill: #1e90ff; stroke: #1e90ff"/>
     <use xlink:href="#m735ed562c9" x="584.836364" y="274.86" style="fill: #1e90ff; stroke: #1e90ff"/>
     <use xlink:href="#m735ed562c9" x="605.127273" y="331.56" style="fill: #1e90ff; stroke: #1e90ff"/>
     <use xlink:href="#m735ed562c9" x="625.418182" y="293.76" style="fill: #1e90ff; stroke: #1e90ff"/>
     <use xlink:href="#m735ed562c9" x="645.709091" y="331.56" style="fill: #1e90ff; stroke: #1e90ff"/>
     <use xlink:href="#m735ed562c9" x="666" y="331.56" style="fill: #1e90ff; stroke: #1e90ff"/>
     <use xlink:href="#m735ed562c9" x="686.290909" y="369.36" style="fill: #1e90ff; stroke: #1e90ff"/>
     <use xlink:href="#m735ed562c9" x="706.581818" y="218.16" style="fill: #1e90ff; stroke: #1e90ff"/>
     <use xlink:href="#m735ed562c9" x="726.872727" y="369.36" style="fill: #1e90ff; stroke: #1e90ff"/>
     <use xlink:href="#m735ed562c9" x="747.163636" y="369.36" style="fill: #1e90ff; stroke: #1e90ff"/>
    </g>
   </g>
   <g id="patch_3">
    <path d="M 108 384.48 
L 108 51.84 
" style="fill: none; stroke: #ffffff; stroke-width: 0.8; stroke-linejoin: miter; stroke-linecap: square"/>
   </g>
   <g id="patch_4">
    <path d="M 777.6 384.48 
L 777.6 51.84 
" style="fill: none; stroke: #ffffff; stroke-width: 0.8; stroke-linejoin: miter; stroke-linecap: square"/>
   </g>
   <g id="patch_5">
    <path d="M 108 384.48 
L 777.6 384.48 
" style="fill: none; stroke: #ffffff; stroke-width: 0.8; stroke-linejoin: miter; stroke-linecap: square"/>
   </g>
   <g id="patch_6">
    <path d="M 108 51.84 
L 777.6 51.84 
" style="fill: none; stroke: #ffffff; stroke-width: 0.8; stroke-linejoin: miter; stroke-linecap: square"/>
   </g>
   <g id="text_31">
    <!-- Commit Count for jakeoliverlee.com -->
    <g style="fill: #ffffff" transform="translate(334.663125 45.84) scale(0.12 -0.12)">
     <defs>
      <path id="DejaVuSans-66" d="M 2375 4863 
L 2375 4384 
L 1825 4384 
Q 1516 4384 1395 4259 
Q 1275 4134 1275 3809 
L 1275 3500 
L 2222 3500 
L 2222 3053 
L 1275 3053 
L 1275 0 
L 697 0 
L 697 3053 
L 147 3053 
L 147 3500 
L 697 3500 
L 697 3744 
Q 697 4328 969 4595 
Q 1241 4863 1831 4863 
L 2375 4863 
z
" transform="scale(0.015625)"/>
      <path id="DejaVuSans-72" d="M 2631 2963 
Q 2534 3019 2420 3045 
Q 2306 3072 2169 3072 
Q 1681 3072 1420 2755 
Q 1159 2438 1159 1844 
L 1159 0 
L 581 0 
L 581 3500 
L 1159 3500 
L 1159 2956 
Q 1341 3275 1631 3429 
Q 1922 3584 2338 3584 
Q 2397 3584 2469 3576 
Q 2541 3569 2628 3553 
L 2631 2963 
z
" transform="scale(0.015625)"/>
      <path id="DejaVuSans-6a" d="M 603 3500 
L 1178 3500 
L 1178 -63 
Q 1178 -731 923 -1031 
Q 669 -1331 103 -1331 
L -116 -1331 
L -116 -844 
L 38 -844 
Q 366 -844 484 -692 
Q 603 -541 603 -63 
L 603 3500 
z
M 603 4863 
L 1178 4863 
L 1178 4134 
L 603 4134 
L 603 4863 
z
" transform="scale(0.015625)"/>
      <path id="DejaVuSans-6b" d="M 581 4863 
L 1159 4863 
L 1159 1991 
L 2875 3500 
L 3609 3500 
L 1753 1863 
L 3688 0 
L 2938 0 
L 1159 1709 
L 1159 0 
L 581 0 
L 581 4863 
z
" transform="scale(0.015625)"/>
      <path id="DejaVuSans-65" d="M 3597 1894 
L 3597 1613 
L 953 1613 
Q 991 1019 1311 708 
Q 1631 397 2203 397 
Q 2534 397 2845 478 
Q 3156 559 3463 722 
L 3463 178 
Q 3153 47 2828 -22 
Q 2503 -91 2169 -91 
Q 1331 -91 842 396 
Q 353 884 353 1716 
Q 353 2575 817 3079 
Q 1281 3584 2069 3584 
Q 2775 3584 3186 3129 
Q 3597 2675 3597 1894 
z
M 3022 2063 
Q 3016 2534 2758 2815 
Q 2500 3097 2075 3097 
Q 1594 3097 1305 2825 
Q 1016 2553 972 2059 
L 3022 2063 
z
" transform="scale(0.015625)"/>
      <path id="DejaVuSans-6c" d="M 603 4863 
L 1178 4863 
L 1178 0 
L 603 0 
L 603 4863 
z
" transform="scale(0.015625)"/>
      <path id="DejaVuSans-76" d="M 191 3500 
L 800 3500 
L 1894 563 
L 2988 3500 
L 3597 3500 
L 2284 0 
L 1503 0 
L 191 3500 
z
" transform="scale(0.015625)"/>
      <path id="DejaVuSans-2e" d="M 684 794 
L 1344 794 
L 1344 0 
L 684 0 
L 684 794 
z
" transform="scale(0.015625)"/>
      <path id="DejaVuSans-63" d="M 3122 3366 
L 3122 2828 
Q 2878 2963 2633 3030 
Q 2388 3097 2138 3097 
Q 1578 3097 1268 2742 
Q 959 2388 959 1747 
Q 959 1106 1268 751 
Q 1578 397 2138 397 
Q 2388 397 2633 464 
Q 2878 531 3122 666 
L 3122 134 
Q 2881 22 2623 -34 
Q 2366 -91 2075 -91 
Q 1284 -91 818 406 
Q 353 903 353 1747 
Q 353 2603 823 3093 
Q 1294 3584 2113 3584 
Q 2378 3584 2631 3529 
Q 2884 3475 3122 3366 
z
" transform="scale(0.015625)"/>
     </defs>
     <use xlink:href="#DejaVuSans-43"/>
     <use xlink:href="#DejaVuSans-6f" x="69.824219"/>
     <use xlink:href="#DejaVuSans-6d" x="131.005859"/>
     <use xlink:href="#DejaVuSans-6d" x="228.417969"/>
     <use xlink:href="#DejaVuSans-69" x="325.830078"/>
     <use xlink:href="#DejaVuSans-74" x="353.613281"/>
     <use xlink:href="#DejaVuSans-20" x="392.822266"/>
     <use xlink:href="#DejaVuSans-43" x="424.609375"/>
     <use xlink:href="#DejaVuSans-6f" x="494.433594"/>
     <use xlink:href="#DejaVuSans-75" x="555.615234"/>
     <use xlink:href="#DejaVuSans-6e" x="618.994141"/>
     <use xlink:href="#DejaVuSans-74" x="682.373047"/>
     <use xlink:href="#DejaVuSans-20" x="721.582031"/>
     <use xlink:href="#DejaVuSans-66" x="753.369141"/>
     <use xlink:href="#DejaVuSans-6f" x="788.574219"/>
     <use xlink:href="#DejaVuSans-72" x="849.755859"/>
     <use xlink:href="#DejaVuSans-20" x="890.869141"/>
     <use xlink:href="#DejaVuSans-6a" x="922.65625"/>
     <use xlink:href="#DejaVuSans-61" x="950.439453"/>
     <use xlink:href="#DejaVuSans-6b" x="1011.71875"/>
     <use xlink:href="#DejaVuSans-65" x="1066.003906"/>
     <use xlink:href="#DejaVuSans-6f" x="1127.527344"/>
     <use xlink:href="#DejaVuSans-6c" x="1188.708984"/>
     <use xlink:href="#DejaVuSans-69" x="1216.492188"/>
     <use xlink:href="#DejaVuSans-76" x="1244.275391"/>
     <use xlink:href="#DejaVuSans-65" x="1303.455078"/>
     <use xlink:href="#DejaVuSans-72" x="1364.978516"/>
     <use xlink:href="#DejaVuSans-6c" x="1406.091797"/>
     <use xlink:href="#DejaVuSans-65" x="1433.875"/>
     <use xlink:href="#DejaVuSans-65" x="1495.398438"/>
     <use xlink:href="#DejaVuSans-2e" x="1556.921875"/>
     <use xlink:href="#DejaVuSans-63" x="1588.708984"/>
     <use xlink:href="#DejaVuSans-6f" x="1643.689453"/>
     <use xlink:href="#DejaVuSans-6d" x="1704.871094"/>
    </g>
   </g>
  </g>
 </g>
 <defs>
  <clipPath id="p9fc7bfb846">
   <rect x="108" y="51.84" width="669.6" height="332.64"/>
  </clipPath>
 </defs>
</svg>
