<?xml version="1.0" encoding="utf-8" standalone="no"?>
<!DOCTYPE svg PUBLIC "-//W3C//DTD SVG 1.1//EN"
  "http://www.w3.org/Graphics/SVG/1.1/DTD/svg11.dtd">
<svg xmlns:xlink="http://www.w3.org/1999/xlink" width="864pt" height="432pt" viewBox="0 0 864 432" xmlns="http://www.w3.org/2000/svg" version="1.1">
 <metadata>
  <rdf:RDF xmlns:dc="http://purl.org/dc/elements/1.1/" xmlns:cc="http://creativecommons.org/ns#" xmlns:rdf="http://www.w3.org/1999/02/22-rdf-syntax-ns#">
   <cc:Work>
    <dc:type rdf:resource="http://purl.org/dc/dcmitype/StillImage"/>
    <dc:date>2023-05-16T14:35:38.840339</dc:date>
    <dc:format>image/svg+xml</dc:format>
    <dc:creator>
     <cc:Agent>
      <dc:title>Matplotlib v3.7.1, https://matplotlib.org/</dc:title>
     </cc:Agent>
    </dc:creator>
   </cc:Work>
  </rdf:RDF>
 </metadata>
 <defs>
  <style type="text/css">*{stroke-linejoin: round; stroke-linecap: butt}</style>
 </defs>
 <g id="figure_1">
  <g id="patch_1">
   <path d="M 0 432 
L 864 432 
L 864 0 
L 0 0 
z
" style="fill: #ffffff"/>
  </g>
  <g id="axes_1">
   <g id="patch_2">
    <path d="M 108 384.48 
L 777.6 384.48 
L 777.6 51.84 
L 108 51.84 
z
" style="fill: #ffffff"/>
   </g>
   <g id="matplotlib.axis_1">
    <g id="xtick_1">
     <g id="line2d_1">
      <path d="M 138.436364 384.48 
L 138.436364 51.84 
" clip-path="url(#p1b358f0ce9)" style="fill: none; stroke: #cccccc; stroke-width: 0.8; stroke-linecap: round"/>
     </g>
     <g id="line2d_2"/>
     <g id="text_1">
      <!-- 16 -->
      <g transform="translate(136.332721 400.968668) rotate(-45) scale(0.1 -0.1)">
       <defs>
        <path id="LiberationSans-31" d="M 488 0 
L 488 478 
L 1609 478 
L 1609 3866 
L 616 3156 
L 616 3688 
L 1656 4403 
L 2175 4403 
L 2175 478 
L 3247 478 
L 3247 0 
L 488 0 
z
" transform="scale(0.015625)"/>
        <path id="LiberationSans-36" d="M 3278 1441 
Q 3278 1109 3186 832 
Q 3094 556 2914 357 
Q 2734 159 2468 48 
Q 2203 -63 1856 -63 
Q 1472 -63 1184 84 
Q 897 231 706 507 
Q 516 784 420 1186 
Q 325 1588 325 2100 
Q 325 2688 433 3131 
Q 541 3575 744 3872 
Q 947 4169 1239 4319 
Q 1531 4469 1900 4469 
Q 2125 4469 2322 4422 
Q 2519 4375 2680 4270 
Q 2841 4166 2962 3994 
Q 3084 3822 3156 3572 
L 2619 3475 
Q 2531 3759 2339 3886 
Q 2147 4013 1894 4013 
Q 1663 4013 1475 3903 
Q 1288 3794 1156 3576 
Q 1025 3359 954 3031 
Q 884 2703 884 2266 
Q 1038 2550 1316 2698 
Q 1594 2847 1953 2847 
Q 2253 2847 2497 2750 
Q 2741 2653 2914 2470 
Q 3088 2288 3183 2027 
Q 3278 1766 3278 1441 
z
M 2706 1416 
Q 2706 1644 2650 1828 
Q 2594 2013 2481 2142 
Q 2369 2272 2203 2342 
Q 2038 2413 1819 2413 
Q 1666 2413 1509 2367 
Q 1353 2322 1226 2220 
Q 1100 2119 1020 1953 
Q 941 1788 941 1550 
Q 941 1306 1003 1095 
Q 1066 884 1183 728 
Q 1300 572 1465 481 
Q 1631 391 1838 391 
Q 2041 391 2202 461 
Q 2363 531 2475 664 
Q 2588 797 2647 987 
Q 2706 1178 2706 1416 
z
" transform="scale(0.015625)"/>
       </defs>
       <use xlink:href="#LiberationSans-31"/>
       <use xlink:href="#LiberationSans-36" x="55.615234"/>
      </g>
     </g>
    </g>
    <g id="xtick_2">
     <g id="line2d_3">
      <path d="M 199.309091 384.48 
L 199.309091 51.84 
" clip-path="url(#p1b358f0ce9)" style="fill: none; stroke: #cccccc; stroke-width: 0.8; stroke-linecap: round"/>
     </g>
     <g id="line2d_4"/>
     <g id="text_2">
      <!-- 19 -->
      <g transform="translate(197.205448 400.968668) rotate(-45) scale(0.1 -0.1)">
       <defs>
        <path id="LiberationSans-39" d="M 3256 2291 
Q 3256 1703 3145 1261 
Q 3034 819 2828 525 
Q 2622 231 2326 84 
Q 2031 -63 1663 -63 
Q 1409 -63 1206 -11 
Q 1003 41 843 150 
Q 684 259 571 434 
Q 459 609 391 856 
L 928 941 
Q 1016 656 1202 523 
Q 1388 391 1672 391 
Q 1900 391 2089 498 
Q 2278 606 2411 822 
Q 2544 1038 2619 1363 
Q 2694 1688 2700 2125 
Q 2634 1978 2520 1862 
Q 2406 1747 2261 1667 
Q 2116 1588 1947 1545 
Q 1778 1503 1606 1503 
Q 1306 1503 1064 1611 
Q 822 1719 653 1912 
Q 484 2106 392 2379 
Q 300 2653 300 2988 
Q 300 3328 398 3603 
Q 497 3878 684 4070 
Q 872 4263 1145 4366 
Q 1419 4469 1766 4469 
Q 2500 4469 2878 3925 
Q 3256 3381 3256 2291 
z
M 2644 2834 
Q 2644 3078 2586 3293 
Q 2528 3509 2414 3668 
Q 2300 3828 2133 3920 
Q 1966 4013 1747 4013 
Q 1544 4013 1381 3941 
Q 1219 3869 1106 3736 
Q 994 3603 933 3412 
Q 872 3222 872 2988 
Q 872 2766 926 2575 
Q 981 2384 1090 2245 
Q 1200 2106 1362 2026 
Q 1525 1947 1741 1947 
Q 1897 1947 2058 2000 
Q 2219 2053 2348 2162 
Q 2478 2272 2561 2439 
Q 2644 2606 2644 2834 
z
" transform="scale(0.015625)"/>
       </defs>
       <use xlink:href="#LiberationSans-31"/>
       <use xlink:href="#LiberationSans-39" x="55.615234"/>
      </g>
     </g>
    </g>
    <g id="xtick_3">
     <g id="line2d_5">
      <path d="M 260.181818 384.48 
L 260.181818 51.84 
" clip-path="url(#p1b358f0ce9)" style="fill: none; stroke: #cccccc; stroke-width: 0.8; stroke-linecap: round"/>
     </g>
     <g id="line2d_6"/>
     <g id="text_3">
      <!-- 22 -->
      <g transform="translate(258.078176 400.968668) rotate(-45) scale(0.1 -0.1)">
       <defs>
        <path id="LiberationSans-32" d="M 322 0 
L 322 397 
Q 481 763 711 1042 
Q 941 1322 1194 1548 
Q 1447 1775 1695 1969 
Q 1944 2163 2144 2356 
Q 2344 2550 2467 2762 
Q 2591 2975 2591 3244 
Q 2591 3431 2534 3573 
Q 2478 3716 2372 3812 
Q 2266 3909 2117 3957 
Q 1969 4006 1788 4006 
Q 1619 4006 1470 3959 
Q 1322 3913 1206 3819 
Q 1091 3725 1017 3586 
Q 944 3447 922 3263 
L 347 3316 
Q 375 3553 478 3762 
Q 581 3972 762 4130 
Q 944 4288 1198 4378 
Q 1453 4469 1788 4469 
Q 2116 4469 2372 4391 
Q 2628 4313 2804 4159 
Q 2981 4006 3075 3781 
Q 3169 3556 3169 3263 
Q 3169 3041 3089 2841 
Q 3009 2641 2876 2459 
Q 2744 2278 2569 2109 
Q 2394 1941 2203 1780 
Q 2013 1619 1819 1461 
Q 1625 1303 1454 1143 
Q 1284 984 1150 820 
Q 1016 656 941 478 
L 3238 478 
L 3238 0 
L 322 0 
z
" transform="scale(0.015625)"/>
       </defs>
       <use xlink:href="#LiberationSans-32"/>
       <use xlink:href="#LiberationSans-32" x="55.615234"/>
      </g>
     </g>
    </g>
    <g id="xtick_4">
     <g id="line2d_7">
      <path d="M 321.054545 384.48 
L 321.054545 51.84 
" clip-path="url(#p1b358f0ce9)" style="fill: none; stroke: #cccccc; stroke-width: 0.8; stroke-linecap: round"/>
     </g>
     <g id="line2d_8"/>
     <g id="text_4">
      <!-- 25 -->
      <g transform="translate(318.950903 400.968668) rotate(-45) scale(0.1 -0.1)">
       <defs>
        <path id="LiberationSans-35" d="M 3291 1434 
Q 3291 1103 3191 828 
Q 3091 553 2894 354 
Q 2697 156 2405 46 
Q 2113 -63 1728 -63 
Q 1381 -63 1123 18 
Q 866 100 687 242 
Q 509 384 404 575 
Q 300 766 256 984 
L 825 1050 
Q 859 925 921 808 
Q 984 691 1092 598 
Q 1200 506 1358 451 
Q 1516 397 1741 397 
Q 1959 397 2137 464 
Q 2316 531 2442 662 
Q 2569 794 2637 984 
Q 2706 1175 2706 1422 
Q 2706 1625 2640 1795 
Q 2575 1966 2453 2089 
Q 2331 2213 2154 2281 
Q 1978 2350 1753 2350 
Q 1613 2350 1494 2325 
Q 1375 2300 1273 2256 
Q 1172 2213 1089 2155 
Q 1006 2097 934 2034 
L 384 2034 
L 531 4403 
L 3034 4403 
L 3034 3925 
L 1044 3925 
L 959 2528 
Q 1109 2644 1334 2726 
Q 1559 2809 1869 2809 
Q 2197 2809 2459 2709 
Q 2722 2609 2906 2426 
Q 3091 2244 3191 1991 
Q 3291 1738 3291 1434 
z
" transform="scale(0.015625)"/>
       </defs>
       <use xlink:href="#LiberationSans-32"/>
       <use xlink:href="#LiberationSans-35" x="55.615234"/>
      </g>
     </g>
    </g>
    <g id="xtick_5">
     <g id="line2d_9">
      <path d="M 381.927273 384.48 
L 381.927273 51.84 
" clip-path="url(#p1b358f0ce9)" style="fill: none; stroke: #cccccc; stroke-width: 0.8; stroke-linecap: round"/>
     </g>
     <g id="line2d_10"/>
     <g id="text_5">
      <!-- 28 -->
      <g transform="translate(379.82363 400.968668) rotate(-45) scale(0.1 -0.1)">
       <defs>
        <path id="LiberationSans-38" d="M 3281 1228 
Q 3281 947 3192 711 
Q 3103 475 2920 303 
Q 2738 131 2453 34 
Q 2169 -63 1781 -63 
Q 1394 -63 1111 34 
Q 828 131 642 301 
Q 456 472 367 708 
Q 278 944 278 1222 
Q 278 1463 351 1650 
Q 425 1838 548 1973 
Q 672 2109 830 2192 
Q 988 2275 1156 2303 
L 1156 2316 
Q 972 2359 826 2456 
Q 681 2553 582 2689 
Q 484 2825 432 2990 
Q 381 3156 381 3341 
Q 381 3572 470 3776 
Q 559 3981 734 4136 
Q 909 4291 1168 4380 
Q 1428 4469 1769 4469 
Q 2128 4469 2392 4378 
Q 2656 4288 2829 4133 
Q 3003 3978 3087 3772 
Q 3172 3566 3172 3334 
Q 3172 3153 3120 2987 
Q 3069 2822 2970 2686 
Q 2872 2550 2726 2454 
Q 2581 2359 2391 2322 
L 2391 2309 
Q 2581 2278 2743 2195 
Q 2906 2113 3025 1977 
Q 3144 1841 3212 1653 
Q 3281 1466 3281 1228 
z
M 2588 3303 
Q 2588 3469 2545 3606 
Q 2503 3744 2406 3842 
Q 2309 3941 2153 3995 
Q 1997 4050 1769 4050 
Q 1547 4050 1394 3995 
Q 1241 3941 1142 3842 
Q 1044 3744 1000 3606 
Q 956 3469 956 3303 
Q 956 3172 990 3034 
Q 1025 2897 1115 2784 
Q 1206 2672 1365 2600 
Q 1525 2528 1775 2528 
Q 2041 2528 2202 2600 
Q 2363 2672 2448 2784 
Q 2534 2897 2561 3034 
Q 2588 3172 2588 3303 
z
M 2697 1281 
Q 2697 1441 2653 1589 
Q 2609 1738 2503 1852 
Q 2397 1966 2217 2036 
Q 2038 2106 1769 2106 
Q 1522 2106 1348 2036 
Q 1175 1966 1067 1850 
Q 959 1734 909 1582 
Q 859 1431 859 1269 
Q 859 1066 909 898 
Q 959 731 1068 611 
Q 1178 491 1356 425 
Q 1534 359 1788 359 
Q 2044 359 2219 425 
Q 2394 491 2500 611 
Q 2606 731 2651 901 
Q 2697 1072 2697 1281 
z
" transform="scale(0.015625)"/>
       </defs>
       <use xlink:href="#LiberationSans-32"/>
       <use xlink:href="#LiberationSans-38" x="55.615234"/>
      </g>
     </g>
    </g>
    <g id="xtick_6">
     <g id="line2d_11">
      <path d="M 442.8 384.48 
L 442.8 51.84 
" clip-path="url(#p1b358f0ce9)" style="fill: none; stroke: #cccccc; stroke-width: 0.8; stroke-linecap: round"/>
     </g>
     <g id="line2d_12"/>
     <g id="text_6">
      <!-- 01 -->
      <g transform="translate(440.696357 400.968668) rotate(-45) scale(0.1 -0.1)">
       <defs>
        <path id="LiberationSans-30" d="M 3309 2203 
Q 3309 1569 3189 1136 
Q 3069 703 2861 436 
Q 2653 169 2372 53 
Q 2091 -63 1772 -63 
Q 1450 -63 1172 53 
Q 894 169 689 434 
Q 484 700 367 1133 
Q 250 1566 250 2203 
Q 250 2869 367 3305 
Q 484 3741 690 4000 
Q 897 4259 1178 4364 
Q 1459 4469 1791 4469 
Q 2106 4469 2382 4364 
Q 2659 4259 2865 4000 
Q 3072 3741 3190 3305 
Q 3309 2869 3309 2203 
z
M 2738 2203 
Q 2738 2728 2675 3076 
Q 2613 3425 2491 3633 
Q 2369 3841 2192 3927 
Q 2016 4013 1791 4013 
Q 1553 4013 1372 3925 
Q 1191 3838 1067 3630 
Q 944 3422 881 3073 
Q 819 2725 819 2203 
Q 819 1697 883 1350 
Q 947 1003 1070 792 
Q 1194 581 1372 489 
Q 1550 397 1778 397 
Q 2000 397 2178 489 
Q 2356 581 2479 792 
Q 2603 1003 2670 1350 
Q 2738 1697 2738 2203 
z
" transform="scale(0.015625)"/>
       </defs>
       <use xlink:href="#LiberationSans-30"/>
       <use xlink:href="#LiberationSans-31" x="55.615234"/>
      </g>
     </g>
    </g>
    <g id="xtick_7">
     <g id="line2d_13">
      <path d="M 503.672727 384.48 
L 503.672727 51.84 
" clip-path="url(#p1b358f0ce9)" style="fill: none; stroke: #cccccc; stroke-width: 0.8; stroke-linecap: round"/>
     </g>
     <g id="line2d_14"/>
     <g id="text_7">
      <!-- 04 -->
      <g transform="translate(501.569085 400.968668) rotate(-45) scale(0.1 -0.1)">
       <defs>
        <path id="LiberationSans-34" d="M 2753 997 
L 2753 0 
L 2222 0 
L 2222 997 
L 147 997 
L 147 1434 
L 2163 4403 
L 2753 4403 
L 2753 1441 
L 3372 1441 
L 3372 997 
L 2753 997 
z
M 2222 3769 
Q 2216 3753 2191 3708 
Q 2166 3663 2134 3606 
Q 2103 3550 2070 3492 
Q 2038 3434 2013 3397 
L 884 1734 
Q 869 1709 839 1668 
Q 809 1628 778 1586 
Q 747 1544 715 1503 
Q 684 1463 666 1441 
L 2222 1441 
L 2222 3769 
z
" transform="scale(0.015625)"/>
       </defs>
       <use xlink:href="#LiberationSans-30"/>
       <use xlink:href="#LiberationSans-34" x="55.615234"/>
      </g>
     </g>
    </g>
    <g id="xtick_8">
     <g id="line2d_15">
      <path d="M 564.545455 384.48 
L 564.545455 51.84 
" clip-path="url(#p1b358f0ce9)" style="fill: none; stroke: #cccccc; stroke-width: 0.8; stroke-linecap: round"/>
     </g>
     <g id="line2d_16"/>
     <g id="text_8">
      <!-- 07 -->
      <g transform="translate(562.441812 400.968668) rotate(-45) scale(0.1 -0.1)">
       <defs>
        <path id="LiberationSans-37" d="M 3238 3947 
Q 2906 3441 2628 2973 
Q 2350 2506 2150 2032 
Q 1950 1559 1839 1061 
Q 1728 563 1728 0 
L 1141 0 
Q 1141 528 1266 1036 
Q 1391 1544 1603 2033 
Q 1816 2522 2097 2994 
Q 2378 3466 2694 3925 
L 328 3925 
L 328 4403 
L 3238 4403 
L 3238 3947 
z
" transform="scale(0.015625)"/>
       </defs>
       <use xlink:href="#LiberationSans-30"/>
       <use xlink:href="#LiberationSans-37" x="55.615234"/>
      </g>
     </g>
    </g>
    <g id="xtick_9">
     <g id="line2d_17">
      <path d="M 625.418182 384.48 
L 625.418182 51.84 
" clip-path="url(#p1b358f0ce9)" style="fill: none; stroke: #cccccc; stroke-width: 0.8; stroke-linecap: round"/>
     </g>
     <g id="line2d_18"/>
     <g id="text_9">
      <!-- 10 -->
      <g transform="translate(623.314539 400.968668) rotate(-45) scale(0.1 -0.1)">
       <use xlink:href="#LiberationSans-31"/>
       <use xlink:href="#LiberationSans-30" x="55.615234"/>
      </g>
     </g>
    </g>
    <g id="xtick_10">
     <g id="line2d_19">
      <path d="M 686.290909 384.48 
L 686.290909 51.84 
" clip-path="url(#p1b358f0ce9)" style="fill: none; stroke: #cccccc; stroke-width: 0.8; stroke-linecap: round"/>
     </g>
     <g id="line2d_20"/>
     <g id="text_10">
      <!-- 13 -->
      <g transform="translate(684.187266 400.968668) rotate(-45) scale(0.1 -0.1)">
       <defs>
        <path id="LiberationSans-33" d="M 3278 1216 
Q 3278 913 3179 675 
Q 3081 438 2892 273 
Q 2703 109 2423 23 
Q 2144 -63 1784 -63 
Q 1375 -63 1095 39 
Q 816 141 634 308 
Q 453 475 362 689 
Q 272 903 244 1131 
L 825 1184 
Q 850 1009 917 865 
Q 984 722 1100 619 
Q 1216 516 1384 459 
Q 1553 403 1784 403 
Q 2209 403 2451 612 
Q 2694 822 2694 1234 
Q 2694 1478 2586 1626 
Q 2478 1775 2317 1858 
Q 2156 1941 1967 1969 
Q 1778 1997 1619 1997 
L 1300 1997 
L 1300 2484 
L 1606 2484 
Q 1766 2484 1937 2517 
Q 2109 2550 2251 2636 
Q 2394 2722 2486 2869 
Q 2578 3016 2578 3244 
Q 2578 3597 2370 3801 
Q 2163 4006 1753 4006 
Q 1381 4006 1151 3815 
Q 922 3625 884 3278 
L 319 3322 
Q 353 3613 478 3828 
Q 603 4044 795 4186 
Q 988 4328 1234 4398 
Q 1481 4469 1759 4469 
Q 2128 4469 2393 4376 
Q 2659 4284 2828 4126 
Q 2997 3969 3076 3756 
Q 3156 3544 3156 3303 
Q 3156 3109 3103 2940 
Q 3050 2772 2937 2637 
Q 2825 2503 2651 2406 
Q 2478 2309 2234 2259 
L 2234 2247 
Q 2500 2219 2697 2126 
Q 2894 2034 3022 1896 
Q 3150 1759 3214 1584 
Q 3278 1409 3278 1216 
z
" transform="scale(0.015625)"/>
       </defs>
       <use xlink:href="#LiberationSans-31"/>
       <use xlink:href="#LiberationSans-33" x="55.615234"/>
      </g>
     </g>
    </g>
    <g id="xtick_11">
     <g id="line2d_21">
      <path d="M 747.163636 384.48 
L 747.163636 51.84 
" clip-path="url(#p1b358f0ce9)" style="fill: none; stroke: #cccccc; stroke-width: 0.8; stroke-linecap: round"/>
     </g>
     <g id="line2d_22"/>
     <g id="text_11">
      <!-- 16 -->
      <g transform="translate(745.059994 400.968668) rotate(-45) scale(0.1 -0.1)">
       <use xlink:href="#LiberationSans-31"/>
       <use xlink:href="#LiberationSans-36" x="55.615234"/>
      </g>
     </g>
    </g>
    <g id="text_12">
     <!-- Days -->
     <g transform="translate(431.408594 413.682789) scale(0.1 -0.1)">
      <defs>
       <path id="LiberationSans-44" d="M 4316 2247 
Q 4316 1697 4150 1276 
Q 3984 856 3696 573 
Q 3409 291 3017 145 
Q 2625 0 2172 0 
L 525 0 
L 525 4403 
L 1981 4403 
Q 2491 4403 2920 4276 
Q 3350 4150 3659 3886 
Q 3969 3622 4142 3215 
Q 4316 2809 4316 2247 
z
M 3716 2247 
Q 3716 2694 3587 3011 
Q 3459 3328 3228 3531 
Q 2997 3734 2675 3829 
Q 2353 3925 1969 3925 
L 1122 3925 
L 1122 478 
L 2103 478 
Q 2450 478 2745 590 
Q 3041 703 3256 925 
Q 3472 1147 3594 1478 
Q 3716 1809 3716 2247 
z
" transform="scale(0.015625)"/>
       <path id="LiberationSans-61" d="M 1294 -63 
Q 784 -63 528 206 
Q 272 475 272 944 
Q 272 1278 398 1492 
Q 525 1706 729 1828 
Q 934 1950 1196 1997 
Q 1459 2044 1731 2050 
L 2491 2063 
L 2491 2247 
Q 2491 2456 2447 2603 
Q 2403 2750 2312 2840 
Q 2222 2931 2086 2973 
Q 1950 3016 1766 3016 
Q 1603 3016 1472 2992 
Q 1341 2969 1244 2908 
Q 1147 2847 1087 2742 
Q 1028 2638 1009 2478 
L 422 2531 
Q 453 2731 540 2898 
Q 628 3066 789 3187 
Q 950 3309 1192 3376 
Q 1434 3444 1778 3444 
Q 2416 3444 2737 3151 
Q 3059 2859 3059 2306 
L 3059 850 
Q 3059 600 3125 473 
Q 3191 347 3375 347 
Q 3422 347 3469 353 
Q 3516 359 3559 369 
L 3559 19 
Q 3453 -6 3348 -18 
Q 3244 -31 3125 -31 
Q 2966 -31 2852 11 
Q 2738 53 2666 139 
Q 2594 225 2556 351 
Q 2519 478 2509 647 
L 2491 647 
Q 2400 484 2292 353 
Q 2184 222 2040 130 
Q 1897 38 1714 -12 
Q 1531 -63 1294 -63 
z
M 1422 359 
Q 1691 359 1892 457 
Q 2094 556 2226 709 
Q 2359 863 2425 1044 
Q 2491 1225 2491 1391 
L 2491 1669 
L 1875 1656 
Q 1669 1653 1483 1626 
Q 1297 1600 1156 1522 
Q 1016 1444 933 1303 
Q 850 1163 850 934 
Q 850 659 998 509 
Q 1147 359 1422 359 
z
" transform="scale(0.015625)"/>
       <path id="LiberationSans-79" d="M 1888 0 
Q 1769 -306 1645 -551 
Q 1522 -797 1369 -970 
Q 1216 -1144 1028 -1236 
Q 841 -1328 597 -1328 
Q 491 -1328 400 -1322 
Q 309 -1316 209 -1294 
L 209 -872 
Q 269 -881 344 -886 
Q 419 -891 472 -891 
Q 719 -891 931 -706 
Q 1144 -522 1303 -119 
L 1356 16 
L 16 3381 
L 616 3381 
L 1328 1513 
Q 1359 1428 1407 1287 
Q 1456 1147 1504 1006 
Q 1553 866 1590 753 
Q 1628 641 1634 613 
Q 1644 647 1680 748 
Q 1716 850 1761 975 
Q 1806 1100 1853 1228 
Q 1900 1356 1931 1450 
L 2594 3381 
L 3188 3381 
L 1888 0 
z
" transform="scale(0.015625)"/>
       <path id="LiberationSans-73" d="M 2969 934 
Q 2969 697 2876 511 
Q 2784 325 2609 198 
Q 2434 72 2179 4 
Q 1925 -63 1597 -63 
Q 1303 -63 1067 -17 
Q 831 28 653 128 
Q 475 228 354 392 
Q 234 556 178 794 
L 675 891 
Q 747 619 972 492 
Q 1197 366 1597 366 
Q 1778 366 1929 391 
Q 2081 416 2190 477 
Q 2300 538 2361 639 
Q 2422 741 2422 891 
Q 2422 1044 2350 1142 
Q 2278 1241 2150 1306 
Q 2022 1372 1839 1420 
Q 1656 1469 1438 1528 
Q 1234 1581 1034 1647 
Q 834 1713 673 1820 
Q 513 1928 413 2087 
Q 313 2247 313 2488 
Q 313 2950 642 3192 
Q 972 3434 1603 3434 
Q 2163 3434 2492 3237 
Q 2822 3041 2909 2606 
L 2403 2544 
Q 2375 2675 2300 2764 
Q 2225 2853 2119 2908 
Q 2013 2963 1880 2986 
Q 1747 3009 1603 3009 
Q 1222 3009 1040 2893 
Q 859 2778 859 2544 
Q 859 2406 926 2317 
Q 994 2228 1114 2167 
Q 1234 2106 1403 2061 
Q 1572 2016 1775 1966 
Q 1909 1931 2050 1892 
Q 2191 1853 2323 1798 
Q 2456 1744 2573 1670 
Q 2691 1597 2778 1494 
Q 2866 1391 2917 1253 
Q 2969 1116 2969 934 
z
" transform="scale(0.015625)"/>
      </defs>
      <use xlink:href="#LiberationSans-44"/>
      <use xlink:href="#LiberationSans-61" x="72.216797"/>
      <use xlink:href="#LiberationSans-79" x="127.832031"/>
      <use xlink:href="#LiberationSans-73" x="177.832031"/>
     </g>
    </g>
   </g>
   <g id="matplotlib.axis_2">
    <g id="ytick_1">
     <g id="line2d_23">
      <path d="M 108 369.36 
L 777.6 369.36 
" clip-path="url(#p1b358f0ce9)" style="fill: none; stroke: #cccccc; stroke-width: 0.8; stroke-linecap: round"/>
     </g>
     <g id="line2d_24"/>
     <g id="text_13">
      <!-- 0 -->
      <g transform="translate(98.939063 372.983437) scale(0.1 -0.1)">
       <use xlink:href="#LiberationSans-30"/>
      </g>
     </g>
    </g>
    <g id="ytick_2">
     <g id="line2d_25">
      <path d="M 108 350.46 
L 777.6 350.46 
" clip-path="url(#p1b358f0ce9)" style="fill: none; stroke: #cccccc; stroke-width: 0.8; stroke-linecap: round"/>
     </g>
     <g id="line2d_26"/>
     <g id="text_14">
      <!-- 1 -->
      <g transform="translate(98.939063 354.083438) scale(0.1 -0.1)">
       <use xlink:href="#LiberationSans-31"/>
      </g>
     </g>
    </g>
    <g id="ytick_3">
     <g id="line2d_27">
      <path d="M 108 331.56 
L 777.6 331.56 
" clip-path="url(#p1b358f0ce9)" style="fill: none; stroke: #cccccc; stroke-width: 0.8; stroke-linecap: round"/>
     </g>
     <g id="line2d_28"/>
     <g id="text_15">
      <!-- 2 -->
      <g transform="translate(98.939063 335.183437) scale(0.1 -0.1)">
       <use xlink:href="#LiberationSans-32"/>
      </g>
     </g>
    </g>
    <g id="ytick_4">
     <g id="line2d_29">
      <path d="M 108 312.66 
L 777.6 312.66 
" clip-path="url(#p1b358f0ce9)" style="fill: none; stroke: #cccccc; stroke-width: 0.8; stroke-linecap: round"/>
     </g>
     <g id="line2d_30"/>
     <g id="text_16">
      <!-- 3 -->
      <g transform="translate(98.939063 316.283437) scale(0.1 -0.1)">
       <use xlink:href="#LiberationSans-33"/>
      </g>
     </g>
    </g>
    <g id="ytick_5">
     <g id="line2d_31">
      <path d="M 108 293.76 
L 777.6 293.76 
" clip-path="url(#p1b358f0ce9)" style="fill: none; stroke: #cccccc; stroke-width: 0.8; stroke-linecap: round"/>
     </g>
     <g id="line2d_32"/>
     <g id="text_17">
      <!-- 4 -->
      <g transform="translate(98.939063 297.383438) scale(0.1 -0.1)">
       <use xlink:href="#LiberationSans-34"/>
      </g>
     </g>
    </g>
    <g id="ytick_6">
     <g id="line2d_33">
      <path d="M 108 274.86 
L 777.6 274.86 
" clip-path="url(#p1b358f0ce9)" style="fill: none; stroke: #cccccc; stroke-width: 0.8; stroke-linecap: round"/>
     </g>
     <g id="line2d_34"/>
     <g id="text_18">
      <!-- 5 -->
      <g transform="translate(98.939063 278.483437) scale(0.1 -0.1)">
       <use xlink:href="#LiberationSans-35"/>
      </g>
     </g>
    </g>
    <g id="ytick_7">
     <g id="line2d_35">
      <path d="M 108 255.96 
L 777.6 255.96 
" clip-path="url(#p1b358f0ce9)" style="fill: none; stroke: #cccccc; stroke-width: 0.8; stroke-linecap: round"/>
     </g>
     <g id="line2d_36"/>
     <g id="text_19">
      <!-- 6 -->
      <g transform="translate(98.939063 259.583437) scale(0.1 -0.1)">
       <use xlink:href="#LiberationSans-36"/>
      </g>
     </g>
    </g>
    <g id="ytick_8">
     <g id="line2d_37">
      <path d="M 108 237.06 
L 777.6 237.06 
" clip-path="url(#p1b358f0ce9)" style="fill: none; stroke: #cccccc; stroke-width: 0.8; stroke-linecap: round"/>
     </g>
     <g id="line2d_38"/>
     <g id="text_20">
      <!-- 7 -->
      <g transform="translate(98.939063 240.683437) scale(0.1 -0.1)">
       <use xlink:href="#LiberationSans-37"/>
      </g>
     </g>
    </g>
    <g id="ytick_9">
     <g id="line2d_39">
      <path d="M 108 218.16 
L 777.6 218.16 
" clip-path="url(#p1b358f0ce9)" style="fill: none; stroke: #cccccc; stroke-width: 0.8; stroke-linecap: round"/>
     </g>
     <g id="line2d_40"/>
     <g id="text_21">
      <!-- 8 -->
      <g transform="translate(98.939063 221.783437) scale(0.1 -0.1)">
       <use xlink:href="#LiberationSans-38"/>
      </g>
     </g>
    </g>
    <g id="ytick_10">
     <g id="line2d_41">
      <path d="M 108 199.26 
L 777.6 199.26 
" clip-path="url(#p1b358f0ce9)" style="fill: none; stroke: #cccccc; stroke-width: 0.8; stroke-linecap: round"/>
     </g>
     <g id="line2d_42"/>
     <g id="text_22">
      <!-- 9 -->
      <g transform="translate(98.939063 202.883437) scale(0.1 -0.1)">
       <use xlink:href="#LiberationSans-39"/>
      </g>
     </g>
    </g>
    <g id="ytick_11">
     <g id="line2d_43">
      <path d="M 108 180.36 
L 777.6 180.36 
" clip-path="url(#p1b358f0ce9)" style="fill: none; stroke: #cccccc; stroke-width: 0.8; stroke-linecap: round"/>
     </g>
     <g id="line2d_44"/>
     <g id="text_23">
      <!-- 10 -->
      <g transform="translate(93.378125 183.983437) scale(0.1 -0.1)">
       <use xlink:href="#LiberationSans-31"/>
       <use xlink:href="#LiberationSans-30" x="55.615234"/>
      </g>
     </g>
    </g>
    <g id="ytick_12">
     <g id="line2d_45">
      <path d="M 108 161.46 
L 777.6 161.46 
" clip-path="url(#p1b358f0ce9)" style="fill: none; stroke: #cccccc; stroke-width: 0.8; stroke-linecap: round"/>
     </g>
     <g id="line2d_46"/>
     <g id="text_24">
      <!-- 11 -->
      <g transform="translate(93.378125 165.083438) scale(0.1 -0.1)">
       <use xlink:href="#LiberationSans-31"/>
       <use xlink:href="#LiberationSans-31" x="55.615234"/>
      </g>
     </g>
    </g>
    <g id="ytick_13">
     <g id="line2d_47">
      <path d="M 108 142.56 
L 777.6 142.56 
" clip-path="url(#p1b358f0ce9)" style="fill: none; stroke: #cccccc; stroke-width: 0.8; stroke-linecap: round"/>
     </g>
     <g id="line2d_48"/>
     <g id="text_25">
      <!-- 12 -->
      <g transform="translate(93.378125 146.183438) scale(0.1 -0.1)">
       <use xlink:href="#LiberationSans-31"/>
       <use xlink:href="#LiberationSans-32" x="55.615234"/>
      </g>
     </g>
    </g>
    <g id="ytick_14">
     <g id="line2d_49">
      <path d="M 108 123.66 
L 777.6 123.66 
" clip-path="url(#p1b358f0ce9)" style="fill: none; stroke: #cccccc; stroke-width: 0.8; stroke-linecap: round"/>
     </g>
     <g id="line2d_50"/>
     <g id="text_26">
      <!-- 13 -->
      <g transform="translate(93.378125 127.283437) scale(0.1 -0.1)">
       <use xlink:href="#LiberationSans-31"/>
       <use xlink:href="#LiberationSans-33" x="55.615234"/>
      </g>
     </g>
    </g>
    <g id="ytick_15">
     <g id="line2d_51">
      <path d="M 108 104.76 
L 777.6 104.76 
" clip-path="url(#p1b358f0ce9)" style="fill: none; stroke: #cccccc; stroke-width: 0.8; stroke-linecap: round"/>
     </g>
     <g id="line2d_52"/>
     <g id="text_27">
      <!-- 14 -->
      <g transform="translate(93.378125 108.383438) scale(0.1 -0.1)">
       <use xlink:href="#LiberationSans-31"/>
       <use xlink:href="#LiberationSans-34" x="55.615234"/>
      </g>
     </g>
    </g>
    <g id="ytick_16">
     <g id="line2d_53">
      <path d="M 108 85.86 
L 777.6 85.86 
" clip-path="url(#p1b358f0ce9)" style="fill: none; stroke: #cccccc; stroke-width: 0.8; stroke-linecap: round"/>
     </g>
     <g id="line2d_54"/>
     <g id="text_28">
      <!-- 15 -->
      <g transform="translate(93.378125 89.483437) scale(0.1 -0.1)">
       <use xlink:href="#LiberationSans-31"/>
       <use xlink:href="#LiberationSans-35" x="55.615234"/>
      </g>
     </g>
    </g>
    <g id="ytick_17">
     <g id="line2d_55">
      <path d="M 108 66.96 
L 777.6 66.96 
" clip-path="url(#p1b358f0ce9)" style="fill: none; stroke: #cccccc; stroke-width: 0.8; stroke-linecap: round"/>
     </g>
     <g id="line2d_56"/>
     <g id="text_29">
      <!-- 16 -->
      <g transform="translate(93.378125 70.583438) scale(0.1 -0.1)">
       <use xlink:href="#LiberationSans-31"/>
       <use xlink:href="#LiberationSans-36" x="55.615234"/>
      </g>
     </g>
    </g>
    <g id="text_30">
     <!-- Commit Count -->
     <g transform="translate(87.303125 250.111562) rotate(-90) scale(0.1 -0.1)">
      <defs>
       <path id="LiberationSans-43" d="M 2475 3981 
Q 2100 3981 1811 3856 
Q 1522 3731 1326 3500 
Q 1131 3269 1031 2944 
Q 931 2619 931 2222 
Q 931 1825 1039 1495 
Q 1147 1166 1348 928 
Q 1550 691 1842 559 
Q 2134 428 2500 428 
Q 2756 428 2967 495 
Q 3178 563 3348 684 
Q 3519 806 3653 973 
Q 3788 1141 3891 1344 
L 4378 1100 
Q 4259 853 4084 640 
Q 3909 428 3673 272 
Q 3438 116 3139 26 
Q 2841 -63 2472 -63 
Q 1938 -63 1536 107 
Q 1134 278 864 583 
Q 594 888 459 1306 
Q 325 1725 325 2222 
Q 325 2738 467 3153 
Q 609 3569 882 3861 
Q 1156 4153 1556 4311 
Q 1956 4469 2469 4469 
Q 3172 4469 3644 4194 
Q 4116 3919 4338 3378 
L 3772 3191 
Q 3709 3347 3603 3489 
Q 3497 3631 3337 3740 
Q 3178 3850 2964 3915 
Q 2750 3981 2475 3981 
z
" transform="scale(0.015625)"/>
       <path id="LiberationSans-6f" d="M 3291 1694 
Q 3291 806 2900 371 
Q 2509 -63 1766 -63 
Q 1413 -63 1134 43 
Q 856 150 664 369 
Q 472 588 370 917 
Q 269 1247 269 1694 
Q 269 3444 1784 3444 
Q 2178 3444 2464 3334 
Q 2750 3225 2933 3006 
Q 3116 2788 3203 2459 
Q 3291 2131 3291 1694 
z
M 2700 1694 
Q 2700 2088 2639 2344 
Q 2578 2600 2461 2753 
Q 2344 2906 2175 2967 
Q 2006 3028 1794 3028 
Q 1578 3028 1404 2964 
Q 1231 2900 1109 2745 
Q 988 2591 923 2334 
Q 859 2078 859 1694 
Q 859 1300 928 1042 
Q 997 784 1117 631 
Q 1238 478 1402 415 
Q 1566 353 1759 353 
Q 1975 353 2150 414 
Q 2325 475 2447 628 
Q 2569 781 2634 1040 
Q 2700 1300 2700 1694 
z
" transform="scale(0.015625)"/>
       <path id="LiberationSans-6d" d="M 2400 0 
L 2400 2144 
Q 2400 2391 2369 2556 
Q 2338 2722 2264 2823 
Q 2191 2925 2072 2967 
Q 1953 3009 1781 3009 
Q 1603 3009 1459 2939 
Q 1316 2869 1214 2736 
Q 1113 2603 1058 2408 
Q 1003 2213 1003 1959 
L 1003 0 
L 444 0 
L 444 2659 
Q 444 2766 442 2883 
Q 441 3000 437 3104 
Q 434 3209 431 3284 
Q 428 3359 425 3381 
L 956 3381 
Q 959 3366 962 3297 
Q 966 3228 970 3139 
Q 975 3050 978 2958 
Q 981 2866 981 2803 
L 991 2803 
Q 1066 2950 1153 3069 
Q 1241 3188 1358 3270 
Q 1475 3353 1626 3398 
Q 1778 3444 1978 3444 
Q 2363 3444 2586 3291 
Q 2809 3138 2897 2803 
L 2906 2803 
Q 2981 2950 3075 3069 
Q 3169 3188 3294 3270 
Q 3419 3353 3575 3398 
Q 3731 3444 3931 3444 
Q 4188 3444 4373 3375 
Q 4559 3306 4678 3162 
Q 4797 3019 4853 2792 
Q 4909 2566 4909 2253 
L 4909 0 
L 4353 0 
L 4353 2144 
Q 4353 2391 4322 2556 
Q 4291 2722 4217 2823 
Q 4144 2925 4025 2967 
Q 3906 3009 3734 3009 
Q 3556 3009 3412 2942 
Q 3269 2875 3167 2744 
Q 3066 2613 3011 2416 
Q 2956 2219 2956 1959 
L 2956 0 
L 2400 0 
z
" transform="scale(0.015625)"/>
       <path id="LiberationSans-69" d="M 428 4100 
L 428 4638 
L 991 4638 
L 991 4100 
L 428 4100 
z
M 428 0 
L 428 3381 
L 991 3381 
L 991 0 
L 428 0 
z
" transform="scale(0.015625)"/>
       <path id="LiberationSans-74" d="M 1731 25 
Q 1603 -9 1470 -29 
Q 1338 -50 1163 -50 
Q 488 -50 488 716 
L 488 2972 
L 97 2972 
L 97 3381 
L 509 3381 
L 675 4138 
L 1050 4138 
L 1050 3381 
L 1675 3381 
L 1675 2972 
L 1050 2972 
L 1050 838 
Q 1050 594 1129 495 
Q 1209 397 1406 397 
Q 1488 397 1564 409 
Q 1641 422 1731 441 
L 1731 25 
z
" transform="scale(0.015625)"/>
       <path id="LiberationSans-20" transform="scale(0.015625)"/>
       <path id="LiberationSans-75" d="M 981 3381 
L 981 1238 
Q 981 991 1017 825 
Q 1053 659 1134 557 
Q 1216 456 1348 414 
Q 1481 372 1678 372 
Q 1878 372 2039 442 
Q 2200 513 2314 645 
Q 2428 778 2490 973 
Q 2553 1169 2553 1422 
L 2553 3381 
L 3116 3381 
L 3116 722 
Q 3116 616 3117 498 
Q 3119 381 3122 276 
Q 3125 172 3128 97 
Q 3131 22 3134 0 
L 2603 0 
Q 2600 16 2597 84 
Q 2594 153 2589 242 
Q 2584 331 2581 423 
Q 2578 516 2578 578 
L 2569 578 
Q 2488 431 2391 312 
Q 2294 194 2166 111 
Q 2038 28 1872 -17 
Q 1706 -63 1488 -63 
Q 1206 -63 1003 6 
Q 800 75 669 219 
Q 538 363 477 588 
Q 416 813 416 1128 
L 416 3381 
L 981 3381 
z
" transform="scale(0.015625)"/>
       <path id="LiberationSans-6e" d="M 2578 0 
L 2578 2144 
Q 2578 2391 2542 2556 
Q 2506 2722 2425 2823 
Q 2344 2925 2211 2967 
Q 2078 3009 1881 3009 
Q 1681 3009 1520 2939 
Q 1359 2869 1245 2736 
Q 1131 2603 1068 2408 
Q 1006 2213 1006 1959 
L 1006 0 
L 444 0 
L 444 2659 
Q 444 2766 442 2883 
Q 441 3000 437 3104 
Q 434 3209 431 3284 
Q 428 3359 425 3381 
L 956 3381 
Q 959 3366 962 3297 
Q 966 3228 970 3139 
Q 975 3050 978 2958 
Q 981 2866 981 2803 
L 991 2803 
Q 1072 2950 1169 3069 
Q 1266 3188 1394 3270 
Q 1522 3353 1687 3398 
Q 1853 3444 2072 3444 
Q 2353 3444 2556 3375 
Q 2759 3306 2890 3162 
Q 3022 3019 3083 2792 
Q 3144 2566 3144 2253 
L 3144 0 
L 2578 0 
z
" transform="scale(0.015625)"/>
      </defs>
      <use xlink:href="#LiberationSans-43"/>
      <use xlink:href="#LiberationSans-6f" x="72.216797"/>
      <use xlink:href="#LiberationSans-6d" x="127.832031"/>
      <use xlink:href="#LiberationSans-6d" x="211.132812"/>
      <use xlink:href="#LiberationSans-69" x="294.433594"/>
      <use xlink:href="#LiberationSans-74" x="316.650391"/>
      <use xlink:href="#LiberationSans-20" x="344.433594"/>
      <use xlink:href="#LiberationSans-43" x="372.216797"/>
      <use xlink:href="#LiberationSans-6f" x="444.433594"/>
      <use xlink:href="#LiberationSans-75" x="500.048828"/>
      <use xlink:href="#LiberationSans-6e" x="555.664062"/>
      <use xlink:href="#LiberationSans-74" x="611.279297"/>
     </g>
    </g>
   </g>
   <g id="PolyCollection_1">
    <defs>
     <path id="mde02876170" d="M 138.436364 -62.64 
L 138.436364 -157.14 
L 140.472241 -147.658395 
L 142.508118 -138.176789 
L 144.543995 -128.695184 
L 146.579872 -119.213579 
L 148.615749 -109.731973 
L 150.651627 -100.250368 
L 152.687504 -90.768763 
L 154.723381 -81.287157 
L 156.759258 -71.805552 
L 158.795135 -62.703211 
L 160.831012 -64.599532 
L 162.86689 -66.495853 
L 164.902767 -68.392174 
L 166.938644 -70.288495 
L 168.974521 -72.184816 
L 171.010398 -74.081137 
L 173.046275 -75.977458 
L 175.082153 -77.873779 
L 177.11803 -79.7701 
L 179.153907 -81.54 
L 181.189784 -81.54 
L 183.225661 -81.54 
L 185.261538 -81.54 
L 187.297416 -81.54 
L 189.333293 -81.54 
L 191.36917 -81.54 
L 193.405047 -81.54 
L 195.440924 -81.54 
L 197.476801 -81.54 
L 199.512679 -81.54 
L 201.548556 -81.54 
L 203.584433 -81.54 
L 205.62031 -81.54 
L 207.656187 -81.54 
L 209.692064 -81.54 
L 211.727942 -81.54 
L 213.763819 -81.54 
L 215.799696 -81.54 
L 217.835573 -81.54 
L 219.87145 -81.287157 
L 221.907327 -79.390836 
L 223.943205 -77.494515 
L 225.979082 -75.598194 
L 228.014959 -73.701873 
L 230.050836 -71.805552 
L 232.086713 -69.909231 
L 234.12259 -68.01291 
L 236.158468 -66.116589 
L 238.194345 -64.220268 
L 240.230222 -63.588161 
L 242.266099 -69.277124 
L 244.301976 -74.966087 
L 246.337853 -80.65505 
L 248.373731 -86.344013 
L 250.409608 -92.032977 
L 252.445485 -97.72194 
L 254.481362 -103.410903 
L 256.517239 -109.099866 
L 258.553116 -114.788829 
L 260.588994 -118.581472 
L 262.624871 -114.788829 
L 264.660748 -110.996187 
L 266.696625 -107.203545 
L 268.732502 -103.410903 
L 270.768379 -99.618261 
L 272.804257 -95.825619 
L 274.840134 -92.032977 
L 276.876011 -88.240334 
L 278.911888 -84.447692 
L 280.947765 -81.982475 
L 282.983642 -83.878796 
L 285.01952 -85.775117 
L 287.055397 -87.671438 
L 289.091274 -89.567759 
L 291.127151 -91.46408 
L 293.163028 -93.360401 
L 295.198905 -95.256722 
L 297.234783 -97.153043 
L 299.27066 -99.049365 
L 301.306537 -101.957057 
L 303.342414 -107.64602 
L 305.378291 -113.334983 
L 307.414168 -119.023946 
L 309.450046 -124.71291 
L 311.485923 -130.401873 
L 313.5218 -136.090836 
L 315.557677 -141.779799 
L 317.593554 -147.468763 
L 319.629431 -153.157726 
L 321.665309 -154.295518 
L 323.701186 -144.813913 
L 325.737063 -135.332308 
L 327.77294 -125.850702 
L 329.808817 -116.369097 
L 331.844694 -106.887492 
L 333.880572 -97.405886 
L 335.916449 -87.924281 
L 337.952326 -78.442676 
L 339.988203 -68.96107 
L 342.02408 -65.168428 
L 344.059957 -72.753712 
L 346.095835 -80.338997 
L 348.131712 -87.924281 
L 350.167589 -95.509565 
L 352.203466 -103.094849 
L 354.239343 -110.680134 
L 356.27522 -118.265418 
L 358.311098 -125.850702 
L 360.346975 -133.435987 
L 362.382852 -137.544682 
L 364.418729 -135.648361 
L 366.454606 -133.75204 
L 368.490483 -131.855719 
L 370.526361 -129.959398 
L 372.562238 -128.063077 
L 374.598115 -126.166756 
L 376.633992 -124.270435 
L 378.669869 -122.374114 
L 380.705746 -120.477793 
L 382.741624 -117.064415 
L 384.777501 -111.375452 
L 386.813378 -105.686488 
L 388.849255 -99.997525 
L 390.885132 -94.308562 
L 392.921009 -88.619599 
L 394.956887 -82.930635 
L 396.992764 -77.241672 
L 399.028641 -71.552709 
L 401.064518 -65.863746 
L 403.100395 -63.461739 
L 405.136272 -65.35806 
L 407.17215 -67.254381 
L 409.208027 -69.150702 
L 411.243904 -71.047023 
L 413.279781 -72.943344 
L 415.315658 -74.839666 
L 417.351535 -76.735987 
L 419.387413 -78.632308 
L 421.42329 -80.528629 
L 423.459167 -94.814247 
L 425.495044 -123.259064 
L 427.530921 -151.70388 
L 429.566798 -180.148696 
L 431.602676 -208.593512 
L 433.638553 -237.038328 
L 435.67443 -265.483144 
L 437.710307 -293.92796 
L 439.746184 -322.372776 
L 441.782061 -350.817592 
L 443.817939 -349.869431 
L 445.853816 -319.528294 
L 447.889693 -289.187157 
L 449.92557 -258.84602 
L 451.961447 -228.504883 
L 453.997324 -198.163746 
L 456.033202 -167.822609 
L 458.069079 -137.481472 
L 460.104956 -107.140334 
L 462.140833 -76.799197 
L 464.17671 -64.662742 
L 466.212587 -68.455385 
L 468.248465 -72.248027 
L 470.284342 -76.040669 
L 472.320219 -79.833311 
L 474.356096 -83.625953 
L 476.391973 -87.418595 
L 478.42785 -91.211237 
L 480.463728 -95.00388 
L 482.499605 -98.796522 
L 484.535482 -98.290836 
L 486.571359 -94.498194 
L 488.607236 -90.705552 
L 490.643113 -86.91291 
L 492.678991 -83.120268 
L 494.714868 -79.327625 
L 496.750745 -75.534983 
L 498.786622 -71.742341 
L 500.822499 -67.949699 
L 502.858376 -64.157057 
L 504.894254 -62.64 
L 506.930131 -62.64 
L 508.966008 -62.64 
L 511.001885 -62.64 
L 513.037762 -62.64 
L 515.073639 -62.64 
L 517.109517 -62.64 
L 519.145394 -62.64 
L 521.181271 -62.64 
L 523.217148 -62.64 
L 525.253025 -65.042007 
L 527.288902 -68.834649 
L 529.32478 -72.627291 
L 531.360657 -76.419933 
L 533.396534 -80.212575 
L 535.432411 -84.005217 
L 537.468288 -87.79786 
L 539.504165 -91.590502 
L 541.540043 -95.383144 
L 543.57592 -99.175786 
L 545.611797 -111.817926 
L 547.647674 -128.884816 
L 549.683551 -145.951706 
L 551.719428 -163.018595 
L 553.755306 -180.085485 
L 555.791183 -197.152375 
L 557.82706 -214.219264 
L 559.862937 -231.286154 
L 561.898814 -248.353043 
L 563.934691 -265.419933 
L 565.970569 -262.575452 
L 568.006446 -251.197525 
L 570.042323 -239.819599 
L 572.0782 -228.441672 
L 574.114077 -217.063746 
L 576.149954 -205.685819 
L 578.185832 -194.307893 
L 580.221709 -182.929967 
L 582.257586 -171.55204 
L 584.293463 -160.174114 
L 586.32934 -152.968094 
L 588.365217 -147.27913 
L 590.401095 -141.590167 
L 592.436972 -135.901204 
L 594.472849 -130.212241 
L 596.508726 -124.523278 
L 598.544603 -118.834314 
L 600.58048 -113.145351 
L 602.616358 -107.456388 
L 604.652235 -101.767425 
L 606.688112 -103.347692 
L 608.723989 -107.140334 
L 610.759866 -110.932977 
L 612.795743 -114.725619 
L 614.831621 -118.518261 
L 616.867498 -122.310903 
L 618.903375 -126.103545 
L 620.939252 -129.896187 
L 622.975129 -133.688829 
L 625.011006 -137.481472 
L 627.046884 -135.205886 
L 629.082761 -131.413244 
L 631.118638 -127.620602 
L 633.154515 -123.82796 
L 635.190392 -120.035318 
L 637.226269 -116.242676 
L 639.262147 -112.450033 
L 641.298024 -108.657391 
L 643.333901 -104.864749 
L 645.369778 -101.072107 
L 647.405655 -100.44 
L 649.441532 -100.44 
L 651.47741 -100.44 
L 653.513287 -100.44 
L 655.549164 -100.44 
L 657.585041 -100.44 
L 659.620918 -100.44 
L 661.656795 -100.44 
L 663.692673 -100.44 
L 665.72855 -100.44 
L 667.764427 -97.153043 
L 669.800304 -93.360401 
L 671.836181 -89.567759 
L 673.872058 -85.775117 
L 675.907936 -81.982475 
L 677.943813 -78.189833 
L 679.97969 -74.397191 
L 682.015567 -70.604548 
L 684.051444 -66.811906 
L 686.087321 -63.019264 
L 688.123199 -76.293512 
L 690.159076 -91.46408 
L 692.194953 -106.634649 
L 694.23083 -121.805217 
L 696.266707 -136.975786 
L 698.302584 -152.146355 
L 700.338462 -167.316923 
L 702.374339 -182.487492 
L 704.410216 -197.65806 
L 706.446093 -212.828629 
L 708.48197 -199.680803 
L 710.517847 -184.510234 
L 712.553725 -169.339666 
L 714.589602 -154.169097 
L 716.625479 -138.998528 
L 718.661356 -123.82796 
L 720.697233 -108.657391 
L 722.73311 -93.486823 
L 724.768988 -78.316254 
L 726.804865 -63.145686 
L 728.840742 -62.64 
L 730.876619 -62.64 
L 732.912496 -62.64 
L 734.948373 -62.64 
L 736.984251 -62.64 
L 739.020128 -62.64 
L 741.056005 -62.64 
L 743.091882 -62.64 
L 745.127759 -62.64 
L 747.163636 -62.64 
L 747.163636 -62.64 
L 747.163636 -62.64 
L 745.127759 -62.64 
L 743.091882 -62.64 
L 741.056005 -62.64 
L 739.020128 -62.64 
L 736.984251 -62.64 
L 734.948373 -62.64 
L 732.912496 -62.64 
L 730.876619 -62.64 
L 728.840742 -62.64 
L 726.804865 -62.64 
L 724.768988 -62.64 
L 722.73311 -62.64 
L 720.697233 -62.64 
L 718.661356 -62.64 
L 716.625479 -62.64 
L 714.589602 -62.64 
L 712.553725 -62.64 
L 710.517847 -62.64 
L 708.48197 -62.64 
L 706.446093 -62.64 
L 704.410216 -62.64 
L 702.374339 -62.64 
L 700.338462 -62.64 
L 698.302584 -62.64 
L 696.266707 -62.64 
L 694.23083 -62.64 
L 692.194953 -62.64 
L 690.159076 -62.64 
L 688.123199 -62.64 
L 686.087321 -62.64 
L 684.051444 -62.64 
L 682.015567 -62.64 
L 679.97969 -62.64 
L 677.943813 -62.64 
L 675.907936 -62.64 
L 673.872058 -62.64 
L 671.836181 -62.64 
L 669.800304 -62.64 
L 667.764427 -62.64 
L 665.72855 -62.64 
L 663.692673 -62.64 
L 661.656795 -62.64 
L 659.620918 -62.64 
L 657.585041 -62.64 
L 655.549164 -62.64 
L 653.513287 -62.64 
L 651.47741 -62.64 
L 649.441532 -62.64 
L 647.405655 -62.64 
L 645.369778 -62.64 
L 643.333901 -62.64 
L 641.298024 -62.64 
L 639.262147 -62.64 
L 637.226269 -62.64 
L 635.190392 -62.64 
L 633.154515 -62.64 
L 631.118638 -62.64 
L 629.082761 -62.64 
L 627.046884 -62.64 
L 625.011006 -62.64 
L 622.975129 -62.64 
L 620.939252 -62.64 
L 618.903375 -62.64 
L 616.867498 -62.64 
L 614.831621 -62.64 
L 612.795743 -62.64 
L 610.759866 -62.64 
L 608.723989 -62.64 
L 606.688112 -62.64 
L 604.652235 -62.64 
L 602.616358 -62.64 
L 600.58048 -62.64 
L 598.544603 -62.64 
L 596.508726 -62.64 
L 594.472849 -62.64 
L 592.436972 -62.64 
L 590.401095 -62.64 
L 588.365217 -62.64 
L 586.32934 -62.64 
L 584.293463 -62.64 
L 582.257586 -62.64 
L 580.221709 -62.64 
L 578.185832 -62.64 
L 576.149954 -62.64 
L 574.114077 -62.64 
L 572.0782 -62.64 
L 570.042323 -62.64 
L 568.006446 -62.64 
L 565.970569 -62.64 
L 563.934691 -62.64 
L 561.898814 -62.64 
L 559.862937 -62.64 
L 557.82706 -62.64 
L 555.791183 -62.64 
L 553.755306 -62.64 
L 551.719428 -62.64 
L 549.683551 -62.64 
L 547.647674 -62.64 
L 545.611797 -62.64 
L 543.57592 -62.64 
L 541.540043 -62.64 
L 539.504165 -62.64 
L 537.468288 -62.64 
L 535.432411 -62.64 
L 533.396534 -62.64 
L 531.360657 -62.64 
L 529.32478 -62.64 
L 527.288902 -62.64 
L 525.253025 -62.64 
L 523.217148 -62.64 
L 521.181271 -62.64 
L 519.145394 -62.64 
L 517.109517 -62.64 
L 515.073639 -62.64 
L 513.037762 -62.64 
L 511.001885 -62.64 
L 508.966008 -62.64 
L 506.930131 -62.64 
L 504.894254 -62.64 
L 502.858376 -62.64 
L 500.822499 -62.64 
L 498.786622 -62.64 
L 496.750745 -62.64 
L 494.714868 -62.64 
L 492.678991 -62.64 
L 490.643113 -62.64 
L 488.607236 -62.64 
L 486.571359 -62.64 
L 484.535482 -62.64 
L 482.499605 -62.64 
L 480.463728 -62.64 
L 478.42785 -62.64 
L 476.391973 -62.64 
L 474.356096 -62.64 
L 472.320219 -62.64 
L 470.284342 -62.64 
L 468.248465 -62.64 
L 466.212587 -62.64 
L 464.17671 -62.64 
L 462.140833 -62.64 
L 460.104956 -62.64 
L 458.069079 -62.64 
L 456.033202 -62.64 
L 453.997324 -62.64 
L 451.961447 -62.64 
L 449.92557 -62.64 
L 447.889693 -62.64 
L 445.853816 -62.64 
L 443.817939 -62.64 
L 441.782061 -62.64 
L 439.746184 -62.64 
L 437.710307 -62.64 
L 435.67443 -62.64 
L 433.638553 -62.64 
L 431.602676 -62.64 
L 429.566798 -62.64 
L 427.530921 -62.64 
L 425.495044 -62.64 
L 423.459167 -62.64 
L 421.42329 -62.64 
L 419.387413 -62.64 
L 417.351535 -62.64 
L 415.315658 -62.64 
L 413.279781 -62.64 
L 411.243904 -62.64 
L 409.208027 -62.64 
L 407.17215 -62.64 
L 405.136272 -62.64 
L 403.100395 -62.64 
L 401.064518 -62.64 
L 399.028641 -62.64 
L 396.992764 -62.64 
L 394.956887 -62.64 
L 392.921009 -62.64 
L 390.885132 -62.64 
L 388.849255 -62.64 
L 386.813378 -62.64 
L 384.777501 -62.64 
L 382.741624 -62.64 
L 380.705746 -62.64 
L 378.669869 -62.64 
L 376.633992 -62.64 
L 374.598115 -62.64 
L 372.562238 -62.64 
L 370.526361 -62.64 
L 368.490483 -62.64 
L 366.454606 -62.64 
L 364.418729 -62.64 
L 362.382852 -62.64 
L 360.346975 -62.64 
L 358.311098 -62.64 
L 356.27522 -62.64 
L 354.239343 -62.64 
L 352.203466 -62.64 
L 350.167589 -62.64 
L 348.131712 -62.64 
L 346.095835 -62.64 
L 344.059957 -62.64 
L 342.02408 -62.64 
L 339.988203 -62.64 
L 337.952326 -62.64 
L 335.916449 -62.64 
L 333.880572 -62.64 
L 331.844694 -62.64 
L 329.808817 -62.64 
L 327.77294 -62.64 
L 325.737063 -62.64 
L 323.701186 -62.64 
L 321.665309 -62.64 
L 319.629431 -62.64 
L 317.593554 -62.64 
L 315.557677 -62.64 
L 313.5218 -62.64 
L 311.485923 -62.64 
L 309.450046 -62.64 
L 307.414168 -62.64 
L 305.378291 -62.64 
L 303.342414 -62.64 
L 301.306537 -62.64 
L 299.27066 -62.64 
L 297.234783 -62.64 
L 295.198905 -62.64 
L 293.163028 -62.64 
L 291.127151 -62.64 
L 289.091274 -62.64 
L 287.055397 -62.64 
L 285.01952 -62.64 
L 282.983642 -62.64 
L 280.947765 -62.64 
L 278.911888 -62.64 
L 276.876011 -62.64 
L 274.840134 -62.64 
L 272.804257 -62.64 
L 270.768379 -62.64 
L 268.732502 -62.64 
L 266.696625 -62.64 
L 264.660748 -62.64 
L 262.624871 -62.64 
L 260.588994 -62.64 
L 258.553116 -62.64 
L 256.517239 -62.64 
L 254.481362 -62.64 
L 252.445485 -62.64 
L 250.409608 -62.64 
L 248.373731 -62.64 
L 246.337853 -62.64 
L 244.301976 -62.64 
L 242.266099 -62.64 
L 240.230222 -62.64 
L 238.194345 -62.64 
L 236.158468 -62.64 
L 234.12259 -62.64 
L 232.086713 -62.64 
L 230.050836 -62.64 
L 228.014959 -62.64 
L 225.979082 -62.64 
L 223.943205 -62.64 
L 221.907327 -62.64 
L 219.87145 -62.64 
L 217.835573 -62.64 
L 215.799696 -62.64 
L 213.763819 -62.64 
L 211.727942 -62.64 
L 209.692064 -62.64 
L 207.656187 -62.64 
L 205.62031 -62.64 
L 203.584433 -62.64 
L 201.548556 -62.64 
L 199.512679 -62.64 
L 197.476801 -62.64 
L 195.440924 -62.64 
L 193.405047 -62.64 
L 191.36917 -62.64 
L 189.333293 -62.64 
L 187.297416 -62.64 
L 185.261538 -62.64 
L 183.225661 -62.64 
L 181.189784 -62.64 
L 179.153907 -62.64 
L 177.11803 -62.64 
L 175.082153 -62.64 
L 173.046275 -62.64 
L 171.010398 -62.64 
L 168.974521 -62.64 
L 166.938644 -62.64 
L 164.902767 -62.64 
L 162.86689 -62.64 
L 160.831012 -62.64 
L 158.795135 -62.64 
L 156.759258 -62.64 
L 154.723381 -62.64 
L 152.687504 -62.64 
L 150.651627 -62.64 
L 148.615749 -62.64 
L 146.579872 -62.64 
L 144.543995 -62.64 
L 142.508118 -62.64 
L 140.472241 -62.64 
L 138.436364 -62.64 
z
" style="stroke: #add8e6; stroke-opacity: 0.2"/>
    </defs>
    <g clip-path="url(#p1b358f0ce9)">
     <use xlink:href="#mde02876170" x="0" y="432" style="fill: #add8e6; fill-opacity: 0.2; stroke: #add8e6; stroke-opacity: 0.2"/>
    </g>
   </g>
   <g id="line2d_57">
    <path d="M 138.436364 274.86 
L 158.795135 369.296789 
L 179.153907 350.46 
L 217.835573 350.46 
L 219.87145 350.712843 
L 238.194345 367.779732 
L 240.230222 368.411839 
L 258.553116 317.211171 
L 260.588994 313.418528 
L 278.911888 347.552308 
L 280.947765 350.017525 
L 299.27066 332.950635 
L 301.306537 330.042943 
L 319.629431 278.842274 
L 321.665309 277.704482 
L 339.988203 363.03893 
L 342.02408 366.831572 
L 360.346975 298.564013 
L 362.382852 294.455318 
L 380.705746 311.522207 
L 382.741624 314.935585 
L 401.064518 366.136254 
L 403.100395 368.538261 
L 421.42329 351.471371 
L 423.459167 337.185753 
L 441.782061 81.182408 
L 443.817939 82.130569 
L 462.140833 355.200803 
L 464.17671 367.337258 
L 482.499605 333.203478 
L 484.535482 333.709164 
L 502.858376 367.842943 
L 504.894254 369.36 
L 523.217148 369.36 
L 525.253025 366.957993 
L 543.57592 332.824214 
L 545.611797 320.182074 
L 563.934691 166.580067 
L 565.970569 169.424548 
L 584.293463 271.825886 
L 586.32934 279.031906 
L 604.652235 330.232575 
L 606.688112 328.652308 
L 625.011006 294.518528 
L 627.046884 296.794114 
L 645.369778 330.927893 
L 647.405655 331.56 
L 665.72855 331.56 
L 667.764427 334.846957 
L 686.087321 368.980736 
L 688.123199 355.706488 
L 706.446093 219.171371 
L 708.48197 232.319197 
L 726.804865 368.854314 
L 728.840742 369.36 
L 747.163636 369.36 
L 747.163636 369.36 
" clip-path="url(#p1b358f0ce9)" style="fill: none; stroke: #add8e6; stroke-width: 1.5; stroke-linecap: round"/>
   </g>
   <g id="line2d_58">
    <defs>
     <path id="md4a9bc0163" d="M 0 3 
C 0.795609 3 1.55874 2.683901 2.12132 2.12132 
C 2.683901 1.55874 3 0.795609 3 0 
C 3 -0.795609 2.683901 -1.55874 2.12132 -2.12132 
C 1.55874 -2.683901 0.795609 -3 0 -3 
C -0.795609 -3 -1.55874 -2.683901 -2.12132 -2.12132 
C -2.683901 -1.55874 -3 -0.795609 -3 0 
C -3 0.795609 -2.683901 1.55874 -2.12132 2.12132 
C -1.55874 2.683901 -0.795609 3 0 3 
z
" style="stroke: #add8e6"/>
    </defs>
    <g clip-path="url(#p1b358f0ce9)">
     <use xlink:href="#md4a9bc0163" x="138.436364" y="274.86" style="fill: #add8e6; stroke: #add8e6"/>
     <use xlink:href="#md4a9bc0163" x="158.727273" y="369.36" style="fill: #add8e6; stroke: #add8e6"/>
     <use xlink:href="#md4a9bc0163" x="179.018182" y="350.46" style="fill: #add8e6; stroke: #add8e6"/>
     <use xlink:href="#md4a9bc0163" x="199.309091" y="350.46" style="fill: #add8e6; stroke: #add8e6"/>
     <use xlink:href="#md4a9bc0163" x="219.6" y="350.46" style="fill: #add8e6; stroke: #add8e6"/>
     <use xlink:href="#md4a9bc0163" x="239.890909" y="369.36" style="fill: #add8e6; stroke: #add8e6"/>
     <use xlink:href="#md4a9bc0163" x="260.181818" y="312.66" style="fill: #add8e6; stroke: #add8e6"/>
     <use xlink:href="#md4a9bc0163" x="280.472727" y="350.46" style="fill: #add8e6; stroke: #add8e6"/>
     <use xlink:href="#md4a9bc0163" x="300.763636" y="331.56" style="fill: #add8e6; stroke: #add8e6"/>
     <use xlink:href="#md4a9bc0163" x="321.054545" y="274.86" style="fill: #add8e6; stroke: #add8e6"/>
     <use xlink:href="#md4a9bc0163" x="341.345455" y="369.36" style="fill: #add8e6; stroke: #add8e6"/>
     <use xlink:href="#md4a9bc0163" x="361.636364" y="293.76" style="fill: #add8e6; stroke: #add8e6"/>
     <use xlink:href="#md4a9bc0163" x="381.927273" y="312.66" style="fill: #add8e6; stroke: #add8e6"/>
     <use xlink:href="#md4a9bc0163" x="402.218182" y="369.36" style="fill: #add8e6; stroke: #add8e6"/>
     <use xlink:href="#md4a9bc0163" x="422.509091" y="350.46" style="fill: #add8e6; stroke: #add8e6"/>
     <use xlink:href="#md4a9bc0163" x="442.8" y="66.96" style="fill: #add8e6; stroke: #add8e6"/>
     <use xlink:href="#md4a9bc0163" x="463.090909" y="369.36" style="fill: #add8e6; stroke: #add8e6"/>
     <use xlink:href="#md4a9bc0163" x="483.381818" y="331.56" style="fill: #add8e6; stroke: #add8e6"/>
     <use xlink:href="#md4a9bc0163" x="503.672727" y="369.36" style="fill: #add8e6; stroke: #add8e6"/>
     <use xlink:href="#md4a9bc0163" x="523.963636" y="369.36" style="fill: #add8e6; stroke: #add8e6"/>
     <use xlink:href="#md4a9bc0163" x="544.254545" y="331.56" style="fill: #add8e6; stroke: #add8e6"/>
     <use xlink:href="#md4a9bc0163" x="564.545455" y="161.46" style="fill: #add8e6; stroke: #add8e6"/>
     <use xlink:href="#md4a9bc0163" x="584.836364" y="274.86" style="fill: #add8e6; stroke: #add8e6"/>
     <use xlink:href="#md4a9bc0163" x="605.127273" y="331.56" style="fill: #add8e6; stroke: #add8e6"/>
     <use xlink:href="#md4a9bc0163" x="625.418182" y="293.76" style="fill: #add8e6; stroke: #add8e6"/>
     <use xlink:href="#md4a9bc0163" x="645.709091" y="331.56" style="fill: #add8e6; stroke: #add8e6"/>
     <use xlink:href="#md4a9bc0163" x="666" y="331.56" style="fill: #add8e6; stroke: #add8e6"/>
     <use xlink:href="#md4a9bc0163" x="686.290909" y="369.36" style="fill: #add8e6; stroke: #add8e6"/>
     <use xlink:href="#md4a9bc0163" x="706.581818" y="218.16" style="fill: #add8e6; stroke: #add8e6"/>
     <use xlink:href="#md4a9bc0163" x="726.872727" y="369.36" style="fill: #add8e6; stroke: #add8e6"/>
     <use xlink:href="#md4a9bc0163" x="747.163636" y="369.36" style="fill: #add8e6; stroke: #add8e6"/>
    </g>
   </g>
   <g id="patch_3">
    <path d="M 108 384.48 
L 108 51.84 
" style="fill: none; stroke: #cccccc; stroke-linejoin: miter; stroke-linecap: square"/>
   </g>
   <g id="patch_4">
    <path d="M 777.6 384.48 
L 777.6 51.84 
" style="fill: none; stroke: #cccccc; stroke-linejoin: miter; stroke-linecap: square"/>
   </g>
   <g id="patch_5">
    <path d="M 108 384.48 
L 777.6 384.48 
" style="fill: none; stroke: #cccccc; stroke-linejoin: miter; stroke-linecap: square"/>
   </g>
   <g id="patch_6">
    <path d="M 108 51.84 
L 777.6 51.84 
" style="fill: none; stroke: #cccccc; stroke-linejoin: miter; stroke-linecap: square"/>
   </g>
   <g id="text_31">
    <!-- Commit Count for jakeoliverlee.com -->
    <g transform="translate(347.772188 45.84) scale(0.12 -0.12)">
     <defs>
      <path id="LiberationSans-66" d="M 1128 2972 
L 1128 0 
L 566 0 
L 566 2972 
L 91 2972 
L 91 3381 
L 566 3381 
L 566 3763 
Q 566 3947 600 4105 
Q 634 4263 726 4380 
Q 819 4497 978 4564 
Q 1138 4631 1391 4631 
Q 1491 4631 1598 4622 
Q 1706 4613 1788 4594 
L 1788 4166 
Q 1734 4175 1664 4183 
Q 1594 4191 1538 4191 
Q 1413 4191 1333 4156 
Q 1253 4122 1208 4058 
Q 1163 3994 1145 3900 
Q 1128 3806 1128 3684 
L 1128 3381 
L 1788 3381 
L 1788 2972 
L 1128 2972 
z
" transform="scale(0.015625)"/>
      <path id="LiberationSans-72" d="M 444 0 
L 444 2594 
Q 444 2700 442 2811 
Q 441 2922 437 3025 
Q 434 3128 431 3218 
Q 428 3309 425 3381 
L 956 3381 
Q 959 3309 964 3217 
Q 969 3125 973 3028 
Q 978 2931 979 2842 
Q 981 2753 981 2691 
L 994 2691 
Q 1053 2884 1120 3026 
Q 1188 3169 1278 3261 
Q 1369 3353 1494 3398 
Q 1619 3444 1797 3444 
Q 1866 3444 1928 3433 
Q 1991 3422 2025 3413 
L 2025 2897 
Q 1969 2913 1894 2920 
Q 1819 2928 1725 2928 
Q 1531 2928 1395 2840 
Q 1259 2753 1173 2598 
Q 1088 2444 1047 2230 
Q 1006 2016 1006 1763 
L 1006 0 
L 444 0 
z
" transform="scale(0.015625)"/>
      <path id="LiberationSans-6a" d="M 428 4100 
L 428 4638 
L 991 4638 
L 991 4100 
L 428 4100 
z
M 991 -419 
Q 991 -613 958 -778 
Q 925 -944 840 -1066 
Q 756 -1188 611 -1258 
Q 466 -1328 241 -1328 
Q 134 -1328 32 -1322 
Q -69 -1316 -156 -1300 
L -156 -866 
Q -116 -872 -59 -878 
Q -3 -884 38 -884 
Q 156 -884 232 -853 
Q 309 -822 353 -755 
Q 397 -688 412 -583 
Q 428 -478 428 -334 
L 428 3381 
L 991 3381 
L 991 -419 
z
" transform="scale(0.015625)"/>
      <path id="LiberationSans-6b" d="M 2550 0 
L 1406 1544 
L 994 1203 
L 994 0 
L 431 0 
L 431 4638 
L 994 4638 
L 994 1741 
L 2478 3381 
L 3138 3381 
L 1766 1928 
L 3209 0 
L 2550 0 
z
" transform="scale(0.015625)"/>
      <path id="LiberationSans-65" d="M 863 1572 
Q 863 1306 917 1082 
Q 972 859 1086 698 
Q 1200 538 1378 448 
Q 1556 359 1806 359 
Q 2172 359 2392 506 
Q 2613 653 2691 878 
L 3184 738 
Q 3131 597 3036 455 
Q 2941 313 2781 198 
Q 2622 84 2383 10 
Q 2144 -63 1806 -63 
Q 1056 -63 664 384 
Q 272 831 272 1713 
Q 272 2188 390 2517 
Q 509 2847 715 3053 
Q 922 3259 1197 3351 
Q 1472 3444 1784 3444 
Q 2209 3444 2495 3306 
Q 2781 3169 2954 2926 
Q 3128 2684 3201 2356 
Q 3275 2028 3275 1647 
L 3275 1572 
L 863 1572 
z
M 2694 2003 
Q 2647 2538 2422 2783 
Q 2197 3028 1775 3028 
Q 1634 3028 1479 2983 
Q 1325 2938 1194 2822 
Q 1063 2706 972 2507 
Q 881 2309 869 2003 
L 2694 2003 
z
" transform="scale(0.015625)"/>
      <path id="LiberationSans-6c" d="M 431 0 
L 431 4638 
L 994 4638 
L 994 0 
L 431 0 
z
" transform="scale(0.015625)"/>
      <path id="LiberationSans-76" d="M 1916 0 
L 1250 0 
L 22 3381 
L 622 3381 
L 1366 1181 
Q 1388 1113 1417 1014 
Q 1447 916 1478 809 
Q 1509 703 1536 604 
Q 1563 506 1581 441 
Q 1600 506 1629 604 
Q 1659 703 1690 806 
Q 1722 909 1755 1007 
Q 1788 1106 1813 1175 
L 2581 3381 
L 3178 3381 
L 1916 0 
z
" transform="scale(0.015625)"/>
      <path id="LiberationSans-2e" d="M 584 0 
L 584 684 
L 1194 684 
L 1194 0 
L 584 0 
z
" transform="scale(0.015625)"/>
      <path id="LiberationSans-63" d="M 859 1706 
Q 859 1416 901 1172 
Q 944 928 1044 751 
Q 1144 575 1308 478 
Q 1472 381 1713 381 
Q 2013 381 2214 543 
Q 2416 706 2463 1044 
L 3031 1006 
Q 3003 797 2909 603 
Q 2816 409 2655 262 
Q 2494 116 2262 26 
Q 2031 -63 1728 -63 
Q 1331 -63 1053 71 
Q 775 206 601 442 
Q 428 678 350 998 
Q 272 1319 272 1694 
Q 272 2034 328 2295 
Q 384 2556 486 2751 
Q 588 2947 725 3080 
Q 863 3213 1023 3292 
Q 1184 3372 1362 3408 
Q 1541 3444 1722 3444 
Q 2006 3444 2228 3366 
Q 2450 3288 2611 3152 
Q 2772 3016 2872 2831 
Q 2972 2647 3013 2434 
L 2434 2391 
Q 2391 2672 2212 2837 
Q 2034 3003 1706 3003 
Q 1466 3003 1305 2923 
Q 1144 2844 1044 2683 
Q 944 2522 901 2278 
Q 859 2034 859 1706 
z
" transform="scale(0.015625)"/>
     </defs>
     <use xlink:href="#LiberationSans-43"/>
     <use xlink:href="#LiberationSans-6f" x="72.216797"/>
     <use xlink:href="#LiberationSans-6d" x="127.832031"/>
     <use xlink:href="#LiberationSans-6d" x="211.132812"/>
     <use xlink:href="#LiberationSans-69" x="294.433594"/>
     <use xlink:href="#LiberationSans-74" x="316.650391"/>
     <use xlink:href="#LiberationSans-20" x="344.433594"/>
     <use xlink:href="#LiberationSans-43" x="372.216797"/>
     <use xlink:href="#LiberationSans-6f" x="444.433594"/>
     <use xlink:href="#LiberationSans-75" x="500.048828"/>
     <use xlink:href="#LiberationSans-6e" x="555.664062"/>
     <use xlink:href="#LiberationSans-74" x="611.279297"/>
     <use xlink:href="#LiberationSans-20" x="639.0625"/>
     <use xlink:href="#LiberationSans-66" x="666.845703"/>
     <use xlink:href="#LiberationSans-6f" x="694.628906"/>
     <use xlink:href="#LiberationSans-72" x="750.244141"/>
     <use xlink:href="#LiberationSans-20" x="783.544922"/>
     <use xlink:href="#LiberationSans-6a" x="811.328125"/>
     <use xlink:href="#LiberationSans-61" x="833.544922"/>
     <use xlink:href="#LiberationSans-6b" x="889.160156"/>
     <use xlink:href="#LiberationSans-65" x="939.160156"/>
     <use xlink:href="#LiberationSans-6f" x="994.775391"/>
     <use xlink:href="#LiberationSans-6c" x="1050.390625"/>
     <use xlink:href="#LiberationSans-69" x="1072.607422"/>
     <use xlink:href="#LiberationSans-76" x="1094.824219"/>
     <use xlink:href="#LiberationSans-65" x="1144.824219"/>
     <use xlink:href="#LiberationSans-72" x="1200.439453"/>
     <use xlink:href="#LiberationSans-6c" x="1233.740234"/>
     <use xlink:href="#LiberationSans-65" x="1255.957031"/>
     <use xlink:href="#LiberationSans-65" x="1311.572266"/>
     <use xlink:href="#LiberationSans-2e" x="1367.1875"/>
     <use xlink:href="#LiberationSans-63" x="1394.970703"/>
     <use xlink:href="#LiberationSans-6f" x="1444.970703"/>
     <use xlink:href="#LiberationSans-6d" x="1500.585938"/>
    </g>
   </g>
  </g>
 </g>
 <defs>
  <clipPath id="p1b358f0ce9">
   <rect x="108" y="51.84" width="669.6" height="332.64"/>
  </clipPath>
 </defs>
</svg>
